<svg width="24" height="24" viewBox="0 0 24 24" fill="none" xmlns="http://www.w3.org/2000/svg">
<mask id="mask0_138_5997" style="mask-type:alpha" maskUnits="userSpaceOnUse" x="0" y="0" width="24" height="24">
<rect width="24" height="24" fill="#D9D9D9"/>
</mask>
<g mask="url(#mask0_138_5997)">
<path d="M11.25 13.75V16C11.25 16.2125 11.3219 16.3906 11.4657 16.5342C11.6096 16.6781 11.7877 16.75 12.0002 16.75C12.2129 16.75 12.391 16.6781 12.5345 16.5342C12.6782 16.3906 12.75 16.2125 12.75 16V13.75H15C15.2125 13.75 15.3906 13.6781 15.5342 13.5342C15.6781 13.3904 15.75 13.2122 15.75 12.9997C15.75 12.7871 15.6781 12.609 15.5342 12.4655C15.3906 12.3218 15.2125 12.25 15 12.25H12.75V10C12.75 9.7875 12.6781 9.60942 12.5342 9.46575C12.3904 9.32192 12.2122 9.25 11.9997 9.25C11.7871 9.25 11.609 9.32192 11.4655 9.46575C11.3218 9.60942 11.25 9.7875 11.25 10V12.25H9C8.7875 12.25 8.60942 12.3219 8.46575 12.4657C8.32192 12.6096 8.25 12.7877 8.25 13.0002C8.25 13.2129 8.32192 13.391 8.46575 13.5345C8.60942 13.6782 8.7875 13.75 9 13.75H11.25ZM12.0005 21.5C10.8207 21.5 9.71542 21.2769 8.68475 20.8307C7.65392 20.3846 6.75516 19.7782 5.9885 19.0115C5.22183 18.2448 4.61541 17.3463 4.16925 16.316C3.72308 15.2855 3.5 14.1803 3.5 13.0005C3.5 11.8207 3.72308 10.7154 4.16925 9.68475C4.61541 8.65392 5.22183 7.75516 5.9885 6.9885C6.75516 6.22183 7.65366 5.61542 8.684 5.16925C9.7145 4.72308 10.8197 4.5 11.9995 4.5C13.1793 4.5 14.2846 4.72308 15.3152 5.16925C16.3461 5.61542 17.2448 6.22183 18.0115 6.9885C18.7782 7.75516 19.3846 8.65366 19.8307 9.684C20.2769 10.7145 20.5 11.8197 20.5 12.9995C20.5 14.1793 20.2769 15.2846 19.8307 16.3152C19.3846 17.3461 18.7782 18.2448 18.0115 19.0115C17.2448 19.7782 16.3463 20.3846 15.316 20.8307C14.2855 21.2769 13.1803 21.5 12.0005 21.5ZM2.4155 7.28075C2.2705 7.13591 2.198 6.96025 2.198 6.75375C2.198 6.54742 2.2705 6.37183 2.4155 6.227L5.227 3.4155C5.3655 3.277 5.5395 3.20617 5.749 3.203C5.95867 3.19967 6.13591 3.2705 6.28075 3.4155C6.42558 3.56033 6.498 3.73592 6.498 3.94225C6.498 4.14875 6.42558 4.32442 6.28075 4.46925L3.46925 7.28075C3.33075 7.41925 3.15675 7.49008 2.94725 7.49325C2.73758 7.49641 2.56033 7.42558 2.4155 7.28075ZM21.5845 7.28075C21.4397 7.42558 21.2641 7.498 21.0577 7.498C20.8512 7.498 20.6756 7.42558 20.5307 7.28075L17.7192 4.46925C17.5807 4.33075 17.5099 4.15675 17.5067 3.94725C17.5036 3.73758 17.5744 3.56033 17.7192 3.4155C17.8641 3.2705 18.0397 3.198 18.2462 3.198C18.4526 3.198 18.6282 3.2705 18.773 3.4155L21.5845 6.227C21.723 6.3655 21.7938 6.5395 21.797 6.749C21.8003 6.95867 21.7295 7.13591 21.5845 7.28075ZM12 20C13.9437 20 15.5962 19.3192 16.9577 17.9577C18.3192 16.5962 19 14.9437 19 13C19 11.0563 18.3192 9.40375 16.9577 8.04225C15.5962 6.68075 13.9437 6 12 6C10.0563 6 8.40375 6.68075 7.04225 8.04225C5.68075 9.40375 5 11.0563 5 13C5 14.9437 5.68075 16.5962 7.04225 17.9577C8.40375 19.3192 10.0563 20 12 20Z" fill="black"/>
</g>
</svg>
