<svg width="24" height="24" viewBox="0 0 24 24" fill="none" xmlns="http://www.w3.org/2000/svg">
<mask id="mask0_292_1942" style="mask-type:alpha" maskUnits="userSpaceOnUse" x="0" y="-1" width="25" height="25">
<rect x="0.0551758" y="-0.237549" width="24" height="24" fill="#D9D9D9"/>
</mask>
<g mask="url(#mask0_292_1942)">
<path d="M18.8306 22.0772C17.603 23.2909 16.2626 23.0993 14.9723 22.5244C13.6068 21.9367 12.3541 21.9111 10.9135 22.5244C9.10958 23.3165 8.15752 23.0865 7.08018 22.0772C0.966944 15.6508 1.8689 5.86426 8.80893 5.50653C10.5001 5.59596 11.6776 6.45196 12.6673 6.52862C14.1455 6.22199 15.5611 5.34044 17.1395 5.45542C19.0311 5.60874 20.4592 6.37531 21.3987 7.75513C17.4902 10.1443 18.4172 15.3953 22 16.8645C21.286 18.781 20.3589 20.6846 18.8181 22.09L18.8306 22.0772ZM12.542 5.42987C12.3541 2.58079 14.6215 0.229971 17.2272 0C17.5905 3.29625 14.2958 5.74927 12.542 5.42987Z" fill="white"/>
</g>
</svg>
