<svg width="24" height="24" viewBox="0 0 24 24" fill="none" xmlns="http://www.w3.org/2000/svg">
<mask id="mask0_355_908" style="mask-type:alpha" maskUnits="userSpaceOnUse" x="0" y="0" width="24" height="24">
<rect width="24" height="24" fill="#D9D9D9"/>
</mask>
<g mask="url(#mask0_355_908)">
<path d="M12.02 23.02C11.46 23.02 11.02 22.58 11.02 22.02V4.02002C11.02 3.46002 11.46 3.02002 12.02 3.02002C12.58 3.02002 13.02 3.46002 13.02 4.02002V22.02C13.02 22.58 12.58 23.02 12.02 23.02Z" fill="black"/>
<path d="M17.8817 9.07593C17.7506 9.07753 17.6206 9.05167 17.5 9C17.3794 8.94833 17.271 8.87201 17.1817 8.77593L12.0201 3.61995L6.92008 8.69995C6.52007 9.09995 5.90009 9.09995 5.50008 8.69995C5.10007 8.29995 5.10007 7.67995 5.50008 7.27995L11.3001 1.49995C11.7001 1.09995 12.3201 1.09995 12.7201 1.49995L18.5817 7.35593C18.9818 7.75593 18.9818 8.37593 18.5817 8.77593C18.3817 8.97593 18.1217 9.07593 17.8817 9.07593Z" fill="black"/>
</g>
</svg>
