<svg width="24" height="24" viewBox="0 0 24 24" fill="none" xmlns="http://www.w3.org/2000/svg">
<mask id="mask0_138_5919" style="mask-type:alpha" maskUnits="userSpaceOnUse" x="0" y="0" width="24" height="24">
<rect width="24" height="24" fill="#D9D9D9"/>
</mask>
<g mask="url(#mask0_138_5919)">
<path d="M6.00076 20.2308C5.16692 20.2308 4.50384 19.9073 4.01151 19.2605C3.51917 18.6137 3.37559 17.8954 3.58076 17.1058L5.42901 10.1423C4.88534 9.87559 4.42792 9.46309 4.05676 8.90475C3.68559 8.34642 3.50001 7.71151 3.50001 7.00001C3.50001 6.03751 3.84276 5.21359 4.52826 4.52826C5.21359 3.84276 6.03751 3.5 7.00001 3.5H14.5C15.177 3.5 15.6886 3.78625 16.0348 4.35875C16.3808 4.93109 16.4031 5.51859 16.1018 6.12125L14.4095 9.50575C14.2442 9.80709 14.0223 10.0481 13.744 10.2288C13.4657 10.4096 13.1536 10.5 12.8078 10.5H10.5135L10.1903 11.702H10.375C10.6262 11.7083 10.838 11.7972 11.0105 11.9685C11.183 12.14 11.2693 12.3524 11.2693 12.6058V14.298C11.2693 14.5542 11.1826 14.7688 11.0093 14.942C10.8361 15.1152 10.6214 15.2018 10.3653 15.2018H9.26526L8.41926 18.4058C8.26626 18.9449 7.96742 19.3838 7.52276 19.7225C7.07809 20.0613 6.57076 20.2308 6.00076 20.2308ZM6.00001 18.7308C6.23334 18.7308 6.43334 18.6641 6.60001 18.5308C6.76667 18.3974 6.88334 18.2224 6.95001 18.0058L8.95776 10.5H6.88276L5.02501 17.4808C4.94167 17.7974 5.00001 18.0849 5.20001 18.3433C5.40001 18.6016 5.66667 18.7308 6.00001 18.7308ZM7.00001 9H12.8078C12.8654 9 12.9199 8.984 12.9713 8.952C13.0224 8.91984 13.0608 8.87817 13.0865 8.827L14.7788 5.44226C14.8301 5.33976 14.8253 5.24042 14.7645 5.14426C14.7035 5.04809 14.6153 5.00001 14.5 5.00001H7.00001C6.45001 5.00001 5.97917 5.19584 5.58751 5.58751C5.19584 5.97917 5.00001 6.45001 5.00001 7.00001C5.00001 7.55001 5.19584 8.02084 5.58751 8.41251C5.97917 8.80417 6.45001 9 7.00001 9ZM21.3 3.5595L19.0403 4.57501C18.8891 4.6455 18.7348 4.64976 18.5773 4.58776C18.4198 4.52576 18.3068 4.41892 18.2385 4.26726C18.168 4.11609 18.1607 3.96175 18.2165 3.80425C18.2723 3.64675 18.3771 3.53384 18.5308 3.4655L20.7903 2.45C20.9416 2.3795 21.0987 2.37525 21.2615 2.43725C21.4243 2.49925 21.5398 2.60609 21.6078 2.75775C21.6783 2.90892 21.6825 3.06326 21.6205 3.22076C21.5583 3.37826 21.4515 3.49117 21.3 3.5595ZM18.5558 10.5595C18.4026 10.4907 18.2913 10.3735 18.2218 10.208C18.1521 10.0423 18.1525 9.88475 18.223 9.73525C18.2935 9.57209 18.4112 9.46192 18.576 9.40475C18.7407 9.34775 18.9038 9.3545 19.0653 9.425L21.3153 10.475C21.4666 10.5455 21.5692 10.6573 21.623 10.8105C21.6768 10.9638 21.6685 11.1161 21.598 11.2673C21.5275 11.4186 21.4157 11.5238 21.2625 11.5828C21.1093 11.6418 20.9571 11.6392 20.8058 11.575L18.5558 10.5595ZM21.673 7.61525H19.173C18.9952 7.61525 18.8482 7.55717 18.732 7.44101C18.6158 7.32467 18.5578 7.1775 18.5578 6.9995C18.5578 6.82167 18.6158 6.67475 18.732 6.55875C18.8482 6.44275 18.9952 6.38476 19.173 6.38476H21.673C21.8508 6.38476 21.9978 6.44284 22.114 6.559C22.2303 6.67534 22.2885 6.82251 22.2885 7.00051C22.2885 7.17834 22.2303 7.32526 22.114 7.44126C21.9978 7.55726 21.8508 7.61525 21.673 7.61525Z" fill="black"/>
</g>
</svg>
