<svg width="24" height="24" viewBox="0 0 24 24" fill="none" xmlns="http://www.w3.org/2000/svg">
<mask id="mask0_138_5907" style="mask-type:alpha" maskUnits="userSpaceOnUse" x="0" y="0" width="24" height="24">
<rect width="24" height="24" fill="#D9D9D9"/>
</mask>
<g mask="url(#mask0_138_5907)">
<path d="M11.25 20.2193V13.8038L6.92701 18.127C6.78851 18.2653 6.61443 18.3362 6.40476 18.3395C6.19526 18.3427 6.01801 18.2718 5.87301 18.127C5.72818 17.982 5.65576 17.8063 5.65576 17.6C5.65576 17.3937 5.72818 17.218 5.87301 17.073L10.9463 12L5.87301 6.92701C5.73468 6.78851 5.66385 6.61443 5.66051 6.40476C5.65735 6.19526 5.72818 6.01801 5.87301 5.87301C6.01801 5.72818 6.19368 5.65576 6.40001 5.65576C6.60635 5.65576 6.78201 5.72818 6.92701 5.87301L11.25 10.1963V3.78076C11.25 3.50643 11.342 3.28468 11.526 3.11551C11.71 2.94618 11.9193 2.86151 12.1538 2.86151C12.2679 2.86151 12.3785 2.88334 12.4855 2.92701C12.5927 2.97051 12.693 3.03909 12.7865 3.13276L16.7213 7.06726C16.8148 7.16093 16.8808 7.25968 16.9193 7.36351C16.9578 7.46734 16.977 7.57951 16.977 7.70001C16.977 7.82051 16.9578 7.93268 16.9193 8.03651C16.8808 8.14034 16.8148 8.23909 16.7213 8.33276L13.0538 12L16.7213 15.6673C16.8148 15.7609 16.8808 15.8597 16.9193 15.9635C16.9578 16.0673 16.977 16.1795 16.977 16.3C16.977 16.4205 16.9578 16.5327 16.9193 16.6365C16.8808 16.7403 16.8148 16.8391 16.7213 16.9328L12.7865 20.8673C12.693 20.9609 12.5927 21.0295 12.4855 21.073C12.3785 21.1167 12.2679 21.1385 12.1538 21.1385C11.9193 21.1385 11.71 21.0538 11.526 20.8845C11.342 20.7153 11.25 20.4936 11.25 20.2193ZM12.75 10.1963L15.2463 7.70001L12.75 5.23451V10.1963ZM12.75 18.7655L15.2463 16.3L12.75 13.8038V18.7655Z" fill="black"/>
</g>
</svg>
