<svg width="24" height="24" viewBox="0 0 24 24" fill="none" xmlns="http://www.w3.org/2000/svg">
<mask id="mask0_138_5856" style="mask-type:alpha" maskUnits="userSpaceOnUse" x="0" y="0" width="24" height="24">
<rect width="24" height="24" fill="#D9D9D9"/>
</mask>
<g mask="url(#mask0_138_5856)">
<path d="M20.8271 12.75H18.7116C18.4988 12.75 18.3206 12.6781 18.1771 12.5345C18.0334 12.391 17.9616 12.2128 17.9616 12C17.9616 11.7871 18.0334 11.609 18.1771 11.4655C18.3206 11.3218 18.4988 11.25 18.7116 11.25H20.8271C21.0399 11.25 21.2181 11.3218 21.3616 11.4655C21.5053 11.609 21.5771 11.7871 21.5771 12C21.5771 12.2128 21.5053 12.391 21.3616 12.5345C21.2181 12.6781 21.0399 12.75 20.8271 12.75ZM16.6673 16.7135C16.7955 16.5378 16.9593 16.4365 17.1588 16.4095C17.3582 16.3826 17.5457 16.4333 17.7213 16.5615L19.4078 17.8287C19.5835 17.9571 19.6848 18.1209 19.7116 18.3202C19.7386 18.5196 19.6879 18.7071 19.5596 18.8827C19.4314 19.0582 19.2677 19.1595 19.0683 19.1865C18.869 19.2135 18.6815 19.1628 18.5058 19.0345L16.8193 17.7672C16.6437 17.6391 16.5424 17.4753 16.5156 17.276C16.4886 17.0766 16.5392 16.8891 16.6673 16.7135ZM19.3693 6.13272L17.6828 7.39997C17.5072 7.52814 17.3197 7.57881 17.1203 7.55197C16.921 7.52497 16.7572 7.42364 16.6288 7.24797C16.5007 7.07247 16.4501 6.88497 16.4771 6.68547C16.5039 6.48614 16.6052 6.32239 16.7808 6.19422L18.4673 4.92697C18.643 4.79881 18.8305 4.74814 19.0298 4.77497C19.2292 4.80197 19.393 4.90322 19.5213 5.07872C19.6495 5.25439 19.7001 5.44189 19.6731 5.64122C19.6463 5.84072 19.545 6.00456 19.3693 6.13272ZM5.2501 14.577H4.23085C3.73218 14.577 3.30626 14.4003 2.9531 14.047C2.59976 13.6938 2.4231 13.2679 2.4231 12.7692V11.2307C2.4231 10.7321 2.59976 10.3061 2.9531 9.95297C3.30626 9.59964 3.73218 9.42297 4.23085 9.42297H8.09635L11.2058 7.56347C11.5072 7.38264 11.811 7.38106 12.1173 7.55872C12.4238 7.73622 12.5771 7.99739 12.5771 8.34222V15.6577C12.5771 16.0026 12.4238 16.2637 12.1173 16.4412C11.811 16.6189 11.5072 16.6173 11.2058 16.4365L8.09635 14.577H6.7501V17.7307C6.7501 17.9436 6.67826 18.1217 6.5346 18.2652C6.3911 18.4089 6.21293 18.4807 6.0001 18.4807C5.78726 18.4807 5.6091 18.4089 5.4656 18.2652C5.32193 18.1217 5.2501 17.9436 5.2501 17.7307V14.577ZM11.0771 14.5847V9.41522L8.5116 10.923H4.23085C4.15401 10.923 4.08351 10.9551 4.01935 11.0192C3.95518 11.0834 3.9231 11.1539 3.9231 11.2307V12.7692C3.9231 12.8461 3.95518 12.9166 4.01935 12.9807C4.08351 13.0449 4.15401 13.077 4.23085 13.077H8.5116L11.0771 14.5847ZM13.9616 15.1192V8.88072C14.3539 9.23589 14.6699 9.68331 14.9096 10.223C15.1494 10.7628 15.2693 11.3551 15.2693 12C15.2693 12.6448 15.1494 13.2371 14.9096 13.777C14.6699 14.3166 14.3539 14.7641 13.9616 15.1192Z" fill="black"/>
</g>
</svg>
