<svg width="24" height="24" viewBox="0 0 24 24" fill="none" xmlns="http://www.w3.org/2000/svg">
<mask id="mask0_138_5853" style="mask-type:alpha" maskUnits="userSpaceOnUse" x="0" y="0" width="24" height="24">
<rect width="24" height="24" fill="#D9D9D9"/>
</mask>
<g mask="url(#mask0_138_5853)">
<path d="M20.8271 12.75H18.7116C18.4991 12.75 18.321 12.6781 18.1773 12.5342C18.0335 12.3904 17.9616 12.2122 17.9616 11.9997C17.9616 11.7871 18.0335 11.609 18.1773 11.4655C18.321 11.3218 18.4991 11.25 18.7116 11.25H20.8271C21.0396 11.25 21.2177 11.3219 21.3613 11.4657C21.5052 11.6096 21.5771 11.7877 21.5771 12.0002C21.5771 12.2129 21.5052 12.391 21.3613 12.5345C21.2177 12.6781 21.0396 12.75 20.8271 12.75ZM16.6673 16.7135C16.7955 16.5378 16.9593 16.4365 17.1588 16.4095C17.3582 16.3826 17.5457 16.4333 17.7213 16.5615L19.4078 17.8287C19.5835 17.9571 19.6848 18.1209 19.7116 18.3202C19.7386 18.5196 19.6879 18.7071 19.5596 18.8827C19.4314 19.0582 19.2677 19.1595 19.0683 19.1865C18.869 19.2135 18.6815 19.1628 18.5058 19.0345L16.8193 17.7672C16.6437 17.6391 16.5424 17.4753 16.5156 17.276C16.4886 17.0766 16.5392 16.8891 16.6673 16.7135ZM19.3693 6.13272L17.6828 7.39997C17.5072 7.52814 17.3197 7.57881 17.1203 7.55197C16.921 7.52497 16.7572 7.42364 16.6288 7.24797C16.5007 7.07247 16.4501 6.88497 16.4771 6.68547C16.5039 6.48614 16.6052 6.32239 16.7808 6.19422L18.4673 4.92697C18.643 4.79881 18.8305 4.74814 19.0298 4.77497C19.2292 4.80197 19.393 4.90322 19.5213 5.07872C19.6495 5.25439 19.7001 5.44189 19.6731 5.64122C19.6463 5.84072 19.545 6.00456 19.3693 6.13272ZM5.2501 14.577H4.23085C3.73368 14.577 3.3081 14.4 2.9541 14.046C2.6001 13.692 2.4231 13.2664 2.4231 12.7692V11.2307C2.4231 10.7336 2.6001 10.308 2.9541 9.95397C3.3081 9.59997 3.73368 9.42297 4.23085 9.42297H8.09635L11.2058 7.56347C11.5072 7.38264 11.811 7.38164 12.1173 7.56047C12.4238 7.73914 12.5771 7.99972 12.5771 8.34222V15.6577C12.5771 16.0002 12.4238 16.2608 12.1173 16.4395C11.811 16.6183 11.5072 16.6173 11.2058 16.4365L8.09635 14.577H6.7501V17.7307C6.7501 17.9432 6.67818 18.1213 6.53435 18.265C6.39051 18.4088 6.21235 18.4807 5.99985 18.4807C5.78718 18.4807 5.6091 18.4088 5.4656 18.265C5.32193 18.1213 5.2501 17.9432 5.2501 17.7307V14.577ZM13.9616 15.1192V8.88072C14.3539 9.23589 14.6699 9.68414 14.9096 10.2255C15.1494 10.7668 15.2693 11.3591 15.2693 12.0022C15.2693 12.6456 15.1494 13.2371 14.9096 13.777C14.6699 14.3166 14.3539 14.7641 13.9616 15.1192Z" fill="black"/>
</g>
</svg>
