<svg width="24" height="24" viewBox="0 0 24 24" fill="none" xmlns="http://www.w3.org/2000/svg">
<mask id="mask0_138_5838" style="mask-type:alpha" maskUnits="userSpaceOnUse" x="0" y="0" width="24" height="24">
<rect width="24" height="24" fill="#D9D9D9"/>
</mask>
<g mask="url(#mask0_138_5838)">
<path d="M8.03077 9.23452L11.227 3.99627C11.3205 3.84244 11.4351 3.73277 11.5708 3.66727C11.7063 3.60194 11.8493 3.56927 12 3.56927C12.1507 3.56927 12.2938 3.60194 12.4293 3.66727C12.5649 3.73277 12.6795 3.84244 12.773 3.99627L15.9693 9.23452C16.0628 9.38519 16.1095 9.54336 16.1095 9.70902C16.1095 9.87486 16.0711 10.0264 15.9943 10.1635C15.9173 10.3007 15.8115 10.4103 15.677 10.4923C15.5423 10.5743 15.3853 10.6153 15.2058 10.6153H8.79427C8.6141 10.6153 8.45643 10.5739 8.32127 10.491C8.1861 10.4082 8.08093 10.299 8.00577 10.1635C7.92893 10.0284 7.89052 9.87819 7.89052 9.71303C7.89052 9.54786 7.93727 9.38836 8.03077 9.23452ZM17.5 21.6153C16.3525 21.6153 15.3798 21.2163 14.5818 20.4183C13.7838 19.6203 13.3848 18.6475 13.3848 17.5C13.3848 16.3525 13.7838 15.3798 14.5818 14.5818C15.3798 13.7838 16.3525 13.3848 17.5 13.3848C18.6475 13.3848 19.6203 13.7838 20.4183 14.5818C21.2163 15.3798 21.6153 16.3525 21.6153 17.5C21.6153 18.6475 21.2163 19.6203 20.4183 20.4183C19.6203 21.2163 18.6475 21.6153 17.5 21.6153ZM3.38477 20.2113V14.7863C3.38477 14.5301 3.47135 14.3158 3.64452 14.1433C3.81785 13.9709 4.0326 13.8848 4.28877 13.8848H9.71377C9.96993 13.8848 10.1843 13.9714 10.3568 14.1445C10.5291 14.3179 10.6153 14.5326 10.6153 14.7888V20.2138C10.6153 20.4699 10.5287 20.6843 10.3555 20.8568C10.1822 21.0291 9.96743 21.1153 9.71127 21.1153H4.28627C4.0301 21.1153 3.81577 21.0287 3.64327 20.8555C3.47093 20.6822 3.38477 20.4674 3.38477 20.2113ZM17.4998 20.1155C18.2319 20.1155 18.8509 19.8627 19.3568 19.357C19.8626 18.8514 20.1155 18.2324 20.1155 17.5003C20.1155 16.7681 19.8627 16.1491 19.357 15.6433C18.8513 15.1374 18.2324 14.8845 17.5003 14.8845C16.7681 14.8845 16.1491 15.1374 15.6433 15.643C15.1374 16.1487 14.8845 16.7676 14.8845 17.4998C14.8845 18.2319 15.1373 18.8509 15.643 19.3568C16.1487 19.8626 16.7676 20.1155 17.4998 20.1155ZM4.88452 19.6155H9.11552V15.3845H4.88452V19.6155ZM9.83852 9.11552H14.1615L12 5.63852L9.83852 9.11552Z" fill="black"/>
</g>
</svg>
