<svg width="24" height="24" viewBox="0 0 24 24" fill="none" xmlns="http://www.w3.org/2000/svg">
<mask id="mask0_138_5829" style="mask-type:alpha" maskUnits="userSpaceOnUse" x="0" y="0" width="24" height="24">
<rect width="24" height="24" fill="#D9D9D9"/>
</mask>
<g mask="url(#mask0_138_5829)">
<path d="M3.43064 19.3652L6.70564 10.2597C6.78264 10.0622 6.89897 9.91156 7.05464 9.80773C7.21047 9.70389 7.37881 9.65198 7.55964 9.65198C7.68014 9.65198 7.79231 9.67214 7.89614 9.71248C7.99997 9.75298 8.09864 9.81998 8.19214 9.91348L14.0576 15.7787C14.1511 15.8724 14.2181 15.9711 14.2584 16.075C14.2989 16.1788 14.3191 16.291 14.3191 16.4115C14.3191 16.5923 14.2672 16.7606 14.1634 16.9162C14.0596 17.0721 13.9089 17.1884 13.7114 17.2652L4.60564 20.5402C4.42497 20.6107 4.25097 20.6216 4.08364 20.573C3.91631 20.5243 3.77239 20.4397 3.65189 20.3192C3.53139 20.1987 3.44681 20.0548 3.39814 19.8875C3.34931 19.7201 3.36014 19.5461 3.43064 19.3652ZM22.3421 7.27498C22.2241 7.39931 22.086 7.46148 21.9276 7.46148C21.7693 7.46148 21.6312 7.40256 21.5134 7.28473L21.4479 7.21923C21.1761 6.94739 20.846 6.81148 20.4576 6.81148C20.0691 6.81148 19.739 6.94739 19.4671 7.21923L14.4016 12.2847C14.2838 12.4026 14.1457 12.4631 13.9874 12.4662C13.8291 12.4696 13.6877 12.4091 13.5634 12.2847C13.4391 12.1602 13.3769 12.0205 13.3769 11.8655C13.3769 11.7103 13.4391 11.5706 13.5634 11.4462L18.6286 6.38073C19.13 5.87956 19.7364 5.62898 20.4479 5.62898C21.1594 5.62898 21.7658 5.87956 22.2671 6.38073L22.3421 6.45573C22.4601 6.57373 22.5191 6.71031 22.5191 6.86548C22.5191 7.02048 22.4601 7.15698 22.3421 7.27498ZM9.87864 4.39998C10.003 4.27564 10.1427 4.21348 10.2979 4.21348C10.4531 4.21348 10.5928 4.27564 10.7171 4.39998L10.9286 4.61148C11.462 5.14481 11.7286 5.78456 11.7286 6.53073C11.7286 7.27689 11.462 7.91664 10.9286 8.44998L10.7479 8.63073C10.6301 8.74873 10.492 8.80931 10.3336 8.81248C10.1753 8.81564 10.0339 8.75506 9.90939 8.63073C9.78506 8.50639 9.72289 8.36664 9.72289 8.21148C9.72289 8.05648 9.78506 7.91673 9.90939 7.79223L10.0904 7.61148C10.3877 7.31414 10.5364 6.95389 10.5364 6.53073C10.5364 6.10773 10.3877 5.74748 10.0904 5.44998L9.87864 5.23848C9.76081 5.12048 9.70022 4.98231 9.69689 4.82398C9.69372 4.66564 9.75431 4.52431 9.87864 4.39998ZM13.7364 2.66923C13.8607 2.54489 14.0005 2.48273 14.1556 2.48273C14.3108 2.48273 14.4506 2.54489 14.5749 2.66923L15.6401 3.73473C16.148 4.24239 16.4019 4.85198 16.4019 5.56348C16.4019 6.27498 16.148 6.88456 15.6401 7.39223L12.5749 10.4577C12.4569 10.5757 12.3187 10.6363 12.1604 10.6395C12.0021 10.6426 11.8607 10.5821 11.7364 10.4577C11.6121 10.3334 11.5499 10.1936 11.5499 10.0385C11.5499 9.88331 11.6121 9.74356 11.7364 9.61923L14.8019 6.55398C15.0736 6.28214 15.2094 5.95198 15.2094 5.56348C15.2094 5.17498 15.0736 4.84481 14.8019 4.57298L13.7364 3.50773C13.6184 3.38973 13.5578 3.25156 13.5546 3.09323C13.5515 2.93489 13.6121 2.79356 13.7364 2.66923ZM20.8516 14.1115C20.7273 14.2358 20.5876 14.298 20.4324 14.298C20.2774 14.298 20.1377 14.2358 20.0134 14.1115L19.2364 13.3347C18.9326 13.0307 18.5607 12.8787 18.1209 12.8787C17.6812 12.8787 17.3095 13.0307 17.0056 13.3347L16.2286 14.1115C16.1106 14.2295 15.9725 14.2901 15.8141 14.2932C15.6558 14.2964 15.5145 14.2358 15.3901 14.1115C15.2658 13.9871 15.2036 13.8474 15.2036 13.6922C15.2036 13.5372 15.2658 13.3975 15.3901 13.273L16.1671 12.4962C16.7068 11.9564 17.3581 11.6865 18.1209 11.6865C18.8837 11.6865 19.5351 11.9564 20.0749 12.4962L20.8516 13.273C20.9696 13.391 21.0302 13.5291 21.0334 13.6875C21.0366 13.8458 20.976 13.9871 20.8516 14.1115Z" fill="black"/>
</g>
</svg>
