<svg width="24" height="24" viewBox="0 0 24 24" fill="none" xmlns="http://www.w3.org/2000/svg">
<mask id="mask0_138_5802" style="mask-type:alpha" maskUnits="userSpaceOnUse" x="0" y="0" width="24" height="24">
<rect width="24" height="24" fill="#D9D9D9"/>
</mask>
<g mask="url(#mask0_138_5802)">
<path d="M20.5714 20.0405V5.70186C20.5714 5.61729 20.544 5.54786 20.489 5.49357C20.4341 5.43928 20.3639 5.41214 20.2783 5.41214H3.72167C3.63611 5.41214 3.56587 5.43928 3.51095 5.49357C3.45603 5.54786 3.42857 5.61729 3.42857 5.70186V12.2375C3.42857 12.4375 3.36008 12.6052 3.2231 12.7404C3.08611 12.8758 2.91643 12.9435 2.71405 12.9435C2.51151 12.9435 2.3419 12.8758 2.20524 12.7404C2.06841 12.6052 2 12.4375 2 12.2375V5.70186C2 5.23381 2.16857 4.83316 2.50571 4.4999C2.84286 4.16663 3.24817 4 3.72167 4H20.2783C20.7518 4 21.1571 4.16663 21.4943 4.4999C21.8314 4.83316 22 5.23381 22 5.70186V18.4563C22 18.8655 21.8623 19.2212 21.5869 19.5234C21.3117 19.8257 20.9732 19.9981 20.5714 20.0405ZM9.14286 13.8306C8.22619 13.8306 7.44151 13.508 6.78881 12.8628C6.13595 12.2175 5.80952 11.4417 5.80952 10.5356C5.80952 9.62948 6.13595 8.85383 6.78881 8.20864C7.44151 7.56329 8.22619 7.24062 9.14286 7.24062C10.0595 7.24062 10.8442 7.56329 11.4969 8.20864C12.1498 8.85383 12.4762 9.62948 12.4762 10.5356C12.4762 11.4417 12.1498 12.2175 11.4969 12.8628C10.8442 13.508 10.0595 13.8306 9.14286 13.8306ZM9.14286 12.4184C9.66667 12.4184 10.1151 12.2341 10.4881 11.8654C10.8611 11.4966 11.0476 11.0534 11.0476 10.5356C11.0476 10.0178 10.8611 9.57456 10.4881 9.20584C10.1151 8.83712 9.66667 8.65275 9.14286 8.65275C8.61905 8.65275 8.17064 8.83712 7.79762 9.20584C7.4246 9.57456 7.2381 10.0178 7.2381 10.5356C7.2381 11.0534 7.4246 11.4966 7.79762 11.8654C8.17064 12.2341 8.61905 12.4184 9.14286 12.4184ZM3.4469 21C3.04516 21 2.70357 20.8609 2.42214 20.5827C2.14071 20.3044 2 19.9667 2 19.5697V18.907C2 18.446 2.12667 18.0191 2.38 17.6262C2.63333 17.2333 2.9719 16.9312 3.39571 16.72C4.33698 16.2639 5.28659 15.9218 6.24452 15.6937C7.20246 15.4655 8.16857 15.3515 9.14286 15.3515C10.1171 15.3515 11.0833 15.4655 12.0412 15.6937C12.9991 15.9218 13.9487 16.2639 14.89 16.72C15.3138 16.9312 15.6524 17.2333 15.9057 17.6262C16.159 18.0191 16.2857 18.446 16.2857 18.907V19.5697C16.2857 19.9667 16.145 20.3044 15.8636 20.5827C15.5821 20.8609 15.2406 21 14.8388 21H3.4469ZM3.42857 19.5879H14.8571V18.907C14.8571 18.7163 14.8013 18.5398 14.6895 18.3774C14.5778 18.2152 14.4261 18.0828 14.2345 17.9801C13.4139 17.5807 12.5772 17.278 11.7245 17.0721C10.8717 16.8664 10.0111 16.7636 9.14286 16.7636C8.2746 16.7636 7.41405 16.8664 6.56119 17.0721C5.70849 17.278 4.87183 17.5807 4.05119 17.9801C3.8596 18.0828 3.70794 18.2152 3.59619 18.3774C3.48444 18.5398 3.42857 18.7163 3.42857 18.907V19.5879Z" fill="black"/>
</g>
</svg>
