<svg width="24" height="24" viewBox="0 0 24 24" fill="none" xmlns="http://www.w3.org/2000/svg">
<mask id="mask0_138_5799" style="mask-type:alpha" maskUnits="userSpaceOnUse" x="0" y="0" width="24" height="24">
<rect width="24" height="24" fill="#D9D9D9"/>
</mask>
<g mask="url(#mask0_138_5799)">
<path d="M20.5714 20.0405V5.70186C20.5714 5.61729 20.544 5.54786 20.489 5.49357C20.4341 5.43928 20.3639 5.41214 20.2783 5.41214H3.72167C3.63611 5.41214 3.56587 5.43928 3.51095 5.49357C3.45603 5.54786 3.42857 5.61729 3.42857 5.70186V12.2375C3.42857 12.4378 3.36016 12.6056 3.22333 12.7407C3.08667 12.8759 2.91698 12.9435 2.71429 12.9435C2.51159 12.9435 2.3419 12.8759 2.20524 12.7407C2.06841 12.6056 2 12.4378 2 12.2375V5.70186C2 5.2324 2.16817 4.83136 2.50452 4.49872C2.84103 4.16624 3.24675 4 3.72167 4H20.2783C20.7533 4 21.159 4.16624 21.4955 4.49872C21.8318 4.83136 22 5.2324 22 5.70186V18.4563C22 18.8655 21.8623 19.2212 21.5869 19.5234C21.3117 19.8257 20.9732 19.9981 20.5714 20.0405ZM9.14286 13.8306C8.22349 13.8306 7.4381 13.5086 6.78667 12.8647C6.13524 12.2209 5.80952 11.4445 5.80952 10.5356C5.80952 9.62681 6.13524 8.85045 6.78667 8.20652C7.4381 7.56258 8.22349 7.24062 9.14286 7.24062C10.0622 7.24062 10.8476 7.56258 11.499 8.20652C12.1505 8.85045 12.4762 9.62681 12.4762 10.5356C12.4762 11.4445 12.1505 12.2209 11.499 12.8647C10.8476 13.5086 10.0622 13.8306 9.14286 13.8306ZM3.4469 21C3.04516 21 2.70357 20.8609 2.42214 20.5827C2.14071 20.3044 2 19.9667 2 19.5697V18.907C2 18.446 2.12667 18.0191 2.38 17.6262C2.63333 17.2333 2.9719 16.9312 3.39571 16.72C4.33698 16.2639 5.28659 15.9218 6.24452 15.6937C7.20246 15.4655 8.16857 15.3515 9.14286 15.3515C10.1171 15.3515 11.0833 15.4655 12.0412 15.6937C12.9991 15.9218 13.9487 16.2639 14.89 16.72C15.3138 16.9312 15.6524 17.2333 15.9057 17.6262C16.159 18.0191 16.2857 18.446 16.2857 18.907V19.5697C16.2857 19.9667 16.145 20.3044 15.8636 20.5827C15.5821 20.8609 15.2406 21 14.8388 21H3.4469Z" fill="black"/>
</g>
</svg>
