<svg width="24" height="24" viewBox="0 0 24 24" fill="none" xmlns="http://www.w3.org/2000/svg">
<mask id="mask0_138_5796" style="mask-type:alpha" maskUnits="userSpaceOnUse" x="0" y="0" width="24" height="24">
<rect width="24" height="24" fill="#D9D9D9"/>
</mask>
<g mask="url(#mask0_138_5796)">
<path d="M4.46927 12.0155L8.52702 16.073C8.66536 16.2115 8.73619 16.3856 8.73952 16.5952C8.74269 16.8047 8.67186 16.982 8.52702 17.127C8.38202 17.2718 8.20636 17.3442 8.00002 17.3442C7.79369 17.3442 7.61802 17.2718 7.47302 17.127L2.97877 12.6327C2.88527 12.5391 2.81927 12.4403 2.78077 12.3365C2.74227 12.2327 2.72302 12.1205 2.72302 12C2.72302 11.8795 2.74227 11.7673 2.78077 11.6635C2.81927 11.5597 2.88527 11.4609 2.97877 11.3672L7.47302 6.87299C7.62186 6.72432 7.79852 6.6484 8.00302 6.64524C8.20736 6.64207 8.38711 6.71799 8.54227 6.87299C8.69744 7.02815 8.77502 7.2064 8.77502 7.40774C8.77502 7.6089 8.69744 7.78707 8.54227 7.94224L4.46927 12.0155ZM19.5308 11.9845L15.473 7.92699C15.3347 7.78849 15.2639 7.6144 15.2605 7.40474C15.2574 7.19524 15.3282 7.01799 15.473 6.87299C15.618 6.72815 15.7937 6.65574 16 6.65574C16.2064 6.65574 16.382 6.72815 16.527 6.87299L21.0213 11.3672C21.1148 11.4609 21.1808 11.5597 21.2193 11.6635C21.2578 11.7673 21.277 11.8795 21.277 12C21.277 12.1205 21.2578 12.2327 21.2193 12.3365C21.1808 12.4403 21.1148 12.5391 21.0213 12.6327L16.527 17.127C16.3782 17.2757 16.2041 17.349 16.0048 17.347C15.8054 17.3452 15.6282 17.2667 15.473 17.1115C15.318 16.9563 15.2405 16.7782 15.2405 16.577C15.2405 16.3757 15.318 16.1974 15.473 16.0422L19.5308 11.9845Z" fill="black"/>
</g>
</svg>
