<svg width="24" height="24" viewBox="0 0 24 24" fill="none" xmlns="http://www.w3.org/2000/svg">
<mask id="mask0_138_5814" style="mask-type:alpha" maskUnits="userSpaceOnUse" x="0" y="0" width="24" height="24">
<rect width="24" height="24" fill="#D9D9D9"/>
</mask>
<g mask="url(#mask0_138_5814)">
<path d="M12.0288 20.5C9.65964 20.5 7.65072 19.6757 6.00205 18.027C4.35339 16.3782 3.52905 14.3692 3.52905 12C3.52905 10.027 4.13955 8.27317 5.36055 6.7385C6.58172 5.20384 8.2083 4.21475 10.2403 3.77125C10.4506 3.71859 10.6359 3.72367 10.7961 3.7865C10.9564 3.84934 11.0866 3.94292 11.1866 4.06725C11.2866 4.19175 11.3456 4.34275 11.3636 4.52025C11.3814 4.69775 11.3397 4.875 11.2386 5.052C11.0321 5.42767 10.8788 5.81792 10.7788 6.22275C10.6788 6.62759 10.6288 7.05334 10.6288 7.5C10.6288 9.13884 11.2025 10.5319 12.3498 11.6793C13.497 12.8264 14.89 13.4 16.5288 13.4C17.02 13.4 17.4892 13.3378 17.9366 13.2135C18.3841 13.0892 18.7757 12.9449 19.1116 12.7808C19.2757 12.7091 19.436 12.6838 19.5923 12.7048C19.7488 12.7259 19.8823 12.7782 19.9928 12.8615C20.1156 12.9448 20.2068 13.0587 20.2663 13.203C20.326 13.3472 20.3327 13.5167 20.2866 13.7115C19.9314 15.6782 18.9746 17.3013 17.4163 18.5808C15.858 19.8603 14.0621 20.5 12.0288 20.5ZM12.0288 19C13.4955 19 14.8121 18.5958 15.9788 17.7875C17.1455 16.9792 17.9955 15.925 18.5288 14.625C18.1955 14.7083 17.8621 14.775 17.5288 14.825C17.1955 14.875 16.8621 14.9 16.5288 14.9C14.4788 14.9 12.733 14.1792 11.2913 12.7375C9.84964 11.2958 9.1288 9.55 9.1288 7.5C9.1288 7.16667 9.1538 6.83334 9.2038 6.5C9.2538 6.16667 9.32047 5.83334 9.4038 5.5C8.1038 6.03334 7.04964 6.88334 6.2413 8.05C5.43297 9.21667 5.0288 10.5333 5.0288 12C5.0288 13.9333 5.71214 15.5833 7.0788 16.95C8.44547 18.3167 10.0955 19 12.0288 19Z" fill="black"/>
</g>
</svg>
