<svg width="24" height="24" viewBox="0 0 24 24" fill="none" xmlns="http://www.w3.org/2000/svg">
<mask id="mask0_138_5721" style="mask-type:alpha" maskUnits="userSpaceOnUse" x="0" y="0" width="24" height="24">
<rect width="24" height="24" fill="#D9D9D9"/>
</mask>
<g mask="url(#mask0_138_5721)">
<path d="M4.42298 20.5C3.91798 20.5 3.49048 20.325 3.14048 19.975C2.79048 19.625 2.61548 19.1974 2.61548 18.6923V5.30775C2.61548 4.80258 2.79048 4.375 3.14048 4.025C3.49048 3.675 3.91798 3.5 4.42298 3.5H17.8077C18.3127 3.5 18.7402 3.675 19.0902 4.025C19.4402 4.375 19.6152 4.80258 19.6152 5.30775V7.38475H20.6345C20.847 7.38475 21.0251 7.45658 21.169 7.60025C21.3126 7.74408 21.3845 7.92233 21.3845 8.135C21.3845 8.3475 21.3126 8.52558 21.169 8.66925C21.0251 8.81275 20.847 8.8845 20.6345 8.8845H19.6152V11.25H20.6345C20.847 11.25 21.0251 11.3219 21.169 11.4658C21.3126 11.6096 21.3845 11.7878 21.3845 12.0003C21.3845 12.2129 21.3126 12.391 21.169 12.5345C21.0251 12.6782 20.847 12.75 20.6345 12.75H19.6152V15.1155H20.6345C20.847 15.1155 21.0251 15.1873 21.169 15.331C21.3126 15.4748 21.3845 15.6531 21.3845 15.8658C21.3845 16.0782 21.3126 16.2563 21.169 16.4C21.0251 16.5435 20.847 16.6152 20.6345 16.6152H19.6152V18.6923C19.6152 19.1974 19.4402 19.625 19.0902 19.975C18.7402 20.325 18.3127 20.5 17.8077 20.5H4.42298ZM7.40448 16.6152H10.1175C10.3738 16.6152 10.5881 16.5287 10.7605 16.3555C10.933 16.1823 11.0192 15.9677 11.0192 15.7115V14C11.0192 13.7438 10.9326 13.5292 10.7592 13.356C10.5859 13.1828 10.3711 13.0963 10.1147 13.0963H7.40173C7.1454 13.0963 6.93106 13.1828 6.75873 13.356C6.58623 13.5292 6.49998 13.7438 6.49998 14V15.7115C6.49998 15.9677 6.58665 16.1823 6.75998 16.3555C6.93331 16.5287 7.14815 16.6152 7.40448 16.6152ZM13.1155 9.90375H14.827C15.083 9.90375 15.2976 9.81717 15.471 9.644C15.6441 9.47083 15.7307 9.25617 15.7307 9V8.2885C15.7307 8.03233 15.6441 7.81767 15.471 7.6445C15.2976 7.47133 15.083 7.38475 14.827 7.38475H13.1155C12.8593 7.38475 12.6446 7.47133 12.4715 7.6445C12.2981 7.81767 12.2115 8.03233 12.2115 8.2885V9C12.2115 9.25617 12.2981 9.47083 12.4715 9.644C12.6446 9.81717 12.8593 9.90375 13.1155 9.90375ZM7.40448 11.9038H10.1175C10.3738 11.9038 10.5881 11.8171 10.7605 11.6438C10.933 11.4704 11.0192 11.2557 11.0192 10.9995V8.28625C11.0192 8.03008 10.9326 7.81575 10.7592 7.64325C10.5859 7.47092 10.3711 7.38475 10.1147 7.38475H7.40173C7.1454 7.38475 6.93106 7.47142 6.75873 7.64475C6.58623 7.81808 6.49998 8.03283 6.49998 8.289V11.0023C6.49998 11.2584 6.58665 11.4728 6.75998 11.6453C6.93331 11.8176 7.14815 11.9038 7.40448 11.9038ZM13.1155 16.6152H14.827C15.083 16.6152 15.2976 16.5287 15.471 16.3555C15.6441 16.1823 15.7307 15.9677 15.7307 15.7115V12C15.7307 11.7438 15.6441 11.5292 15.471 11.356C15.2976 11.1828 15.083 11.0962 14.827 11.0962H13.1155C12.8593 11.0962 12.6446 11.1828 12.4715 11.356C12.2981 11.5292 12.2115 11.7438 12.2115 12V15.7115C12.2115 15.9677 12.2981 16.1823 12.4715 16.3555C12.6446 16.5287 12.8593 16.6152 13.1155 16.6152Z" fill="black"/>
</g>
</svg>
