<svg width="24" height="24" viewBox="0 0 24 24" fill="none" xmlns="http://www.w3.org/2000/svg">
<mask id="mask0_138_5646" style="mask-type:alpha" maskUnits="userSpaceOnUse" x="0" y="0" width="24" height="24">
<rect width="24" height="24" fill="#D9D9D9"/>
</mask>
<g mask="url(#mask0_138_5646)">
<path d="M7.1479 15.0193C7.67107 15.0193 8.14324 14.866 8.5644 14.5595C8.98557 14.2532 9.28266 13.8519 9.45566 13.3558L9.8019 12.273C10.0749 11.4539 10.0034 10.7004 9.5874 10.0125C9.1714 9.32469 8.57882 8.98077 7.80965 8.98077H4.2654L4.7404 12.8963C4.82374 13.4988 5.09265 14.0032 5.54715 14.4095C6.00149 14.816 6.53507 15.0193 7.1479 15.0193ZM16.8519 15.0193C17.4647 15.0193 17.9983 14.816 18.4527 14.4095C18.9072 14.0032 19.1761 13.4988 19.2594 12.8963L19.7344 8.98077H16.2152C15.446 8.98077 14.8518 9.32727 14.4327 10.0203C14.0133 10.7131 13.9402 11.4692 14.2134 12.2885L14.5442 13.3558C14.7172 13.8519 15.0142 14.2532 15.4354 14.5595C15.8566 14.866 16.3287 15.0193 16.8519 15.0193ZM7.1479 16.5193C6.1634 16.5193 5.30032 16.1936 4.55865 15.5423C3.81699 14.8909 3.3859 14.0698 3.2654 13.0788L2.7499 8.98077H2.5769C2.36407 8.98077 2.18582 8.90902 2.04215 8.76552C1.89865 8.62186 1.8269 8.44361 1.8269 8.23077C1.8269 8.01794 1.89865 7.83977 2.04215 7.69627C2.18582 7.55261 2.36407 7.48077 2.5769 7.48077H7.80965C8.46599 7.48077 9.07107 7.64877 9.6249 7.98477C10.1787 8.32061 10.6211 8.78086 10.9519 9.36552H13.0729C13.4037 8.78086 13.8461 8.32061 14.3999 7.98477C14.9537 7.64877 15.5588 7.48077 16.2152 7.48077H21.4229C21.6357 7.48077 21.814 7.55261 21.9577 7.69627C22.1012 7.83977 22.1729 8.01794 22.1729 8.23077C22.1729 8.44361 22.1012 8.62186 21.9577 8.76552C21.814 8.90902 21.6357 8.98077 21.4229 8.98077H21.2499L20.7344 13.0788C20.6139 14.0698 20.1828 14.8909 19.4412 15.5423C18.6995 16.1936 17.8364 16.5193 16.8519 16.5193C15.9981 16.5193 15.232 16.2757 14.5537 15.7885C13.8755 15.3014 13.3992 14.6559 13.1249 13.852L12.7787 12.7845C12.739 12.6487 12.7025 12.507 12.6692 12.3595C12.6358 12.2122 12.6025 11.9962 12.5692 11.7115H11.4307C11.3973 11.9629 11.364 12.1639 11.3307 12.3145C11.2973 12.465 11.2608 12.6083 11.2212 12.7443L10.8749 13.827C10.6069 14.6309 10.1322 15.2805 9.4509 15.776C8.7694 16.2715 8.00174 16.5193 7.1479 16.5193Z" fill="black"/>
</g>
</svg>
