<svg width="24" height="24" viewBox="0 0 24 24" fill="none" xmlns="http://www.w3.org/2000/svg">
<mask id="mask0_138_5637" style="mask-type:alpha" maskUnits="userSpaceOnUse" x="0" y="0" width="24" height="24">
<rect width="24" height="24" fill="#D9D9D9"/>
</mask>
<g mask="url(#mask0_138_5637)">
<path d="M8.99995 16.25C8.64995 16.25 8.35412 16.1292 8.11245 15.8875C7.87079 15.6459 7.74995 15.35 7.74995 15C7.74995 14.65 7.87079 14.3542 8.11245 14.1125C8.35412 13.8709 8.64995 13.75 8.99995 13.75C9.34995 13.75 9.64579 13.8709 9.88745 14.1125C10.1291 14.3542 10.25 14.65 10.25 15C10.25 15.35 10.1291 15.6459 9.88745 15.8875C9.64579 16.1292 9.34995 16.25 8.99995 16.25ZM15 16.25C14.65 16.25 14.3541 16.1292 14.1125 15.8875C13.8708 15.6459 13.75 15.35 13.75 15C13.75 14.65 13.8708 14.3542 14.1125 14.1125C14.3541 13.8709 14.65 13.75 15 13.75C15.35 13.75 15.6458 13.8709 15.8875 14.1125C16.1291 14.3542 16.25 14.65 16.25 15C16.25 15.35 16.1291 15.6459 15.8875 15.8875C15.6458 16.1292 15.35 16.25 15 16.25ZM12 22C14.2333 22 16.125 21.225 17.675 19.675C19.225 18.125 20 16.2334 20 14C20 13.6 19.975 13.2125 19.925 12.8375C19.875 12.4625 19.7833 12.1 19.65 11.75C19.3 11.8334 18.95 11.8959 18.6 11.9375C18.25 11.9792 17.8833 12 17.5 12C15.9833 12 14.55 11.675 13.2 11.025C11.85 10.375 10.7 9.46669 9.74995 8.30003C9.21662 9.60003 8.45412 10.7292 7.46245 11.6875C6.47079 12.6459 5.31662 13.3667 3.99995 13.85V14C3.99995 16.2334 4.77495 18.125 6.32495 19.675C7.87495 21.225 9.76662 22 12 22ZM10.1787 6.22128C10.9364 7.61861 11.9874 8.68111 13.3317 9.40878C14.6759 10.1363 16.0653 10.5 17.5 10.5C17.7718 10.5 18.0369 10.4859 18.2952 10.4578C18.5535 10.4296 18.8154 10.3892 19.0807 10.3365C18.4127 9.00969 17.4451 7.95519 16.178 7.17303C14.9106 6.39103 13.518 6.00003 12 6.00003C11.6641 6.00003 11.351 6.01894 11.0605 6.05678C10.7701 6.09461 10.4762 6.14944 10.1787 6.22128ZM4.2807 12.0905C5.22054 11.62 6.11287 10.9325 6.9577 10.028C7.80254 9.12353 8.34804 8.03919 8.5942 6.77503C7.50054 7.27119 6.5762 7.98436 5.8212 8.91453C5.06604 9.84469 4.55254 10.9034 4.2807 12.0905ZM3.29995 10.3925C3.71529 9.28469 4.32845 8.29969 5.13945 7.43753C5.95029 6.57536 6.89995 5.90453 7.98845 5.42503C7.66662 5.02369 7.27237 4.69869 6.8057 4.45003C6.3392 4.20136 5.82404 4.07703 5.2602 4.07703C4.28804 4.07703 3.46637 4.41286 2.7952 5.08453C2.12404 5.75603 1.78845 6.57853 1.78845 7.55203C1.78845 8.14403 1.9272 8.68494 2.2047 9.17478C2.48237 9.66478 2.84745 10.0707 3.29995 10.3925ZM12.0017 23.5C10.6877 23.5 9.45262 23.2506 8.29645 22.7518C7.14029 22.2531 6.13462 21.5763 5.27945 20.7213C4.42429 19.8663 3.7472 18.8609 3.2482 17.705C2.74937 16.5492 2.49995 15.3142 2.49995 14C2.49995 13.6269 2.52212 13.257 2.56645 12.8905C2.61062 12.5239 2.68012 12.1719 2.77495 11.8348C2.02629 11.4078 1.4247 10.8164 0.970202 10.0608C0.515702 9.30528 0.288452 8.46903 0.288452 7.55203C0.288452 6.16869 0.771785 4.99369 1.73845 4.02703C2.70512 3.06036 3.88012 2.57703 5.26345 2.57703C6.12762 2.57703 6.92254 2.78153 7.6482 3.19053C8.3737 3.59953 8.96145 4.15653 9.41145 4.86153C9.81912 4.74103 10.2414 4.65069 10.6782 4.59053C11.1149 4.53019 11.5555 4.50003 12 4.50003C13.3141 4.50003 14.5491 4.74936 15.705 5.24803C16.8608 5.74669 17.8662 6.42344 18.7212 7.27828C19.5762 8.13311 20.253 9.13836 20.7517 10.294C21.2505 11.4497 21.5 12.6844 21.5 13.9983C21.5 15.3123 21.2506 16.5474 20.752 17.7035C20.2533 18.8597 19.5765 19.8654 18.7217 20.7205C17.8669 21.5757 16.8616 22.2528 15.706 22.7518C14.5503 23.2506 13.3155 23.5 12.0017 23.5Z" fill="black"/>
</g>
</svg>
