<svg width="24" height="24" viewBox="0 0 24 24" fill="none" xmlns="http://www.w3.org/2000/svg">
<mask id="mask0_138_5622" style="mask-type:alpha" maskUnits="userSpaceOnUse" x="0" y="0" width="24" height="24">
<rect width="24" height="24" fill="#D9D9D9"/>
</mask>
<g mask="url(#mask0_138_5622)">
<path d="M3.29834 15.6153V8.38477C3.29834 8.11027 3.38867 7.89102 3.56934 7.72702C3.75017 7.56286 3.96109 7.48077 4.20209 7.48077C4.28542 7.48077 4.37067 7.48911 4.45784 7.50577C4.54501 7.52244 4.62709 7.56094 4.70409 7.62127L10.1346 11.252C10.2718 11.3455 10.3731 11.4551 10.4386 11.5808C10.5039 11.7064 10.5366 11.8462 10.5366 12C10.5366 12.1539 10.5039 12.2936 10.4386 12.4193C10.3731 12.5449 10.2718 12.6545 10.1346 12.748L4.70409 16.3788C4.62709 16.4391 4.54501 16.4776 4.45784 16.4943C4.37067 16.5109 4.28542 16.5193 4.20209 16.5193C3.96109 16.5193 3.75017 16.4372 3.56934 16.273C3.38867 16.109 3.29834 15.8898 3.29834 15.6153ZM12.7406 15.6153V8.38477C12.7406 8.11027 12.8309 7.89102 13.0116 7.72702C13.1924 7.56286 13.4033 7.48077 13.6443 7.48077C13.7277 7.48077 13.8129 7.48911 13.9001 7.50577C13.9873 7.52244 14.0693 7.56094 14.1463 7.62127L19.5768 11.252C19.7142 11.3455 19.8155 11.4551 19.8808 11.5808C19.9462 11.7064 19.9788 11.8462 19.9788 12C19.9788 12.1539 19.9462 12.2936 19.8808 12.4193C19.8155 12.5449 19.7142 12.6545 19.5768 12.748L14.1463 16.3788C14.0693 16.4391 13.9873 16.4776 13.9001 16.4943C13.8129 16.5109 13.7277 16.5193 13.6443 16.5193C13.4033 16.5193 13.1924 16.4372 13.0116 16.273C12.8309 16.109 12.7406 15.8898 12.7406 15.6153Z" fill="black"/>
</g>
</svg>
