<svg width="24" height="24" viewBox="0 0 24 24" fill="none" xmlns="http://www.w3.org/2000/svg">
<mask id="mask0_138_5616" style="mask-type:alpha" maskUnits="userSpaceOnUse" x="0" y="0" width="24" height="24">
<rect width="24" height="24" fill="#D9D9D9"/>
</mask>
<g mask="url(#mask0_138_5616)">
<path d="M19.296 16.3788L13.8655 12.748C13.7283 12.6545 13.627 12.5449 13.5615 12.4193C13.4962 12.2936 13.4635 12.1539 13.4635 12C13.4635 11.8462 13.4962 11.7064 13.5615 11.5808C13.627 11.4551 13.7283 11.3455 13.8655 11.252L19.296 7.62127C19.373 7.56094 19.4551 7.52244 19.5422 7.50577C19.6294 7.48911 19.7147 7.48077 19.798 7.48077C20.039 7.48077 20.2499 7.56286 20.4307 7.72702C20.6114 7.89102 20.7017 8.11027 20.7017 8.38477V15.6153C20.7017 15.8898 20.6114 16.109 20.4307 16.273C20.2499 16.4372 20.039 16.5193 19.798 16.5193C19.7147 16.5193 19.6294 16.5109 19.5422 16.4943C19.4551 16.4776 19.373 16.4391 19.296 16.3788ZM9.85374 16.3788L4.42324 12.748C4.28591 12.6545 4.18457 12.5449 4.11924 12.4193C4.05391 12.2936 4.02124 12.1539 4.02124 12C4.02124 11.8462 4.05391 11.7064 4.11924 11.5808C4.18457 11.4551 4.28591 11.3455 4.42324 11.252L9.85374 7.62127C9.93074 7.56094 10.0128 7.52244 10.1 7.50577C10.1872 7.48911 10.2724 7.48077 10.3557 7.48077C10.5967 7.48077 10.8077 7.56286 10.9885 7.72702C11.1692 7.89102 11.2595 8.11027 11.2595 8.38477V15.6153C11.2595 15.8898 11.1692 16.109 10.9885 16.273C10.8077 16.4372 10.5967 16.5193 10.3557 16.5193C10.2724 16.5193 10.1872 16.5109 10.1 16.4943C10.0128 16.4776 9.93074 16.4391 9.85374 16.3788Z" fill="black"/>
</g>
</svg>
