<svg width="24" height="24" viewBox="0 0 24 24" fill="none" xmlns="http://www.w3.org/2000/svg">
<mask id="mask0_138_5604" style="mask-type:alpha" maskUnits="userSpaceOnUse" x="0" y="0" width="24" height="24">
<rect width="24" height="24" fill="#D9D9D9"/>
</mask>
<g mask="url(#mask0_138_5604)">
<path d="M11.4112 18.7392L15.7329 12.3943C15.7731 12.3289 15.7771 12.2614 15.7449 12.1917C15.7126 12.1221 15.6563 12.0873 15.5759 12.0873H12.0562L14.2545 4.32208C14.2867 4.2239 14.2706 4.1318 14.2061 4.04576C14.1416 3.95972 14.0611 3.9167 13.9646 3.9167H8.2708C8.15816 3.9167 8.06552 3.95354 7.99288 4.02723C7.92044 4.10092 7.88422 4.19515 7.88422 4.30994V13.7459C7.88422 13.8606 7.92044 13.9549 7.99288 14.0286C8.06552 14.1023 8.15816 14.1391 8.2708 14.1391H11.4112V18.7392ZM17.6797 12.8785L11.0852 22.6119C10.9675 22.7871 10.8214 22.9026 10.6468 22.9582C10.472 23.014 10.2984 23.014 10.1261 22.9582C9.95383 22.9026 9.81084 22.801 9.69715 22.6534C9.58368 22.506 9.52695 22.3276 9.52695 22.118V16.0558H8.2708C7.6444 16.0558 7.10939 15.8302 6.66576 15.3789C6.22192 14.9274 6 14.3831 6 13.7459V4.30994C6 3.67275 6.22192 3.1284 6.66576 2.67691C7.10939 2.22564 7.6444 2 8.2708 2H14.3509C14.9727 2 15.4775 2.23959 15.8655 2.71876C16.2536 3.19794 16.368 3.72833 16.2087 4.30994L14.5515 10.1706H16.2665C16.9477 10.1706 17.4515 10.4765 17.7776 11.0884C18.1038 11.7002 18.0711 12.2969 17.6797 12.8785Z" fill="black"/>
</g>
</svg>
