<svg width="24" height="24" viewBox="0 0 24 24" fill="none" xmlns="http://www.w3.org/2000/svg">
<mask id="mask0_138_5580" style="mask-type:alpha" maskUnits="userSpaceOnUse" x="0" y="0" width="24" height="24">
<rect width="24" height="24" fill="#D9D9D9"/>
</mask>
<g mask="url(#mask0_138_5580)">
<path d="M7.49998 20.6345V17.5H2.60398C2.24232 17.5 1.9779 17.341 1.81073 17.023C1.6434 16.705 1.6584 16.3954 1.85573 16.0943L4.84998 11.5H4.65773C4.3064 11.5 4.0429 11.3436 3.86723 11.0308C3.69173 10.7179 3.71098 10.4108 3.92498 10.1095L8.25198 3.92501C8.43265 3.66735 8.68198 3.53851 8.99998 3.53851C9.31798 3.53851 9.56732 3.66735 9.74798 3.92501L12 7.16551L14.252 3.92501C14.4326 3.66735 14.682 3.53851 15 3.53851C15.318 3.53851 15.5673 3.66735 15.748 3.92501L20.075 10.1095C20.289 10.4108 20.3082 10.7179 20.1327 11.0308C19.9571 11.3436 19.6936 11.5 19.3422 11.5H19.15L22.1442 16.0943C22.3416 16.3954 22.3566 16.705 22.1892 17.023C22.0221 17.341 21.7576 17.5 21.396 17.5H16.5V20.596C16.5 20.8538 16.4137 21.0689 16.2412 21.2413C16.0689 21.4138 15.8538 21.5 15.596 21.5H14.3655C14.1205 21.5 13.915 21.417 13.749 21.251C13.583 21.085 13.5 20.8795 13.5 20.6345V17.5H10.5V20.596C10.5 20.8538 10.4137 21.0689 10.2412 21.2413C10.0689 21.4138 9.85382 21.5 9.59598 21.5H8.36548C8.12048 21.5 7.91498 21.417 7.74898 21.251C7.58298 21.085 7.49998 20.8795 7.49998 20.6345ZM16.0902 16H20.3115L16.3885 10H18.15L15 5.50001L12.927 8.45776L14.0845 10.1095C14.2921 10.4108 14.3098 10.7179 14.1375 11.0308C13.965 11.3436 13.7031 11.5 13.3517 11.5H13.15L16.0902 16ZM3.68848 16H14.3115L10.3885 10H12.15L8.99998 5.50001L5.84998 10H7.61148L3.68848 16ZM3.68848 16H7.61148H5.84998H12.15H10.3885H14.3115H3.68848ZM16.0902 16H13.15H15.0385H12.927H18.15H16.3885H20.3115H16.0902Z" fill="black"/>
</g>
</svg>
