<svg width="24" height="24" viewBox="0 0 24 24" fill="none" xmlns="http://www.w3.org/2000/svg">
<mask id="mask0_138_5559" style="mask-type:alpha" maskUnits="userSpaceOnUse" x="0" y="0" width="24" height="24">
<rect width="24" height="24" fill="#D9D9D9"/>
</mask>
<g mask="url(#mask0_138_5559)">
<path d="M12.8731 10.1578L11.2406 8.52502L11.6349 7.57301H10.3271C10.1488 7.43968 9.9792 7.28935 9.81837 7.12202C9.65753 6.95485 9.51045 6.78851 9.37712 6.62301C9.18212 6.39618 9.1497 6.14268 9.27987 5.86252C9.41003 5.58235 9.63603 5.44227 9.95787 5.44227H18.5001C18.795 5.44227 19.045 5.54485 19.2501 5.75002C19.4553 5.95518 19.5579 6.20518 19.5579 6.50002C19.5579 6.79485 19.4553 7.04485 19.2501 7.25002C19.045 7.45518 18.795 7.55777 18.5001 7.55777H13.9789L12.8731 10.1578ZM19.0424 21.15L11.4329 13.5308L9.56362 17.9403C9.47895 18.1403 9.34753 18.2996 9.16937 18.4183C8.9912 18.5368 8.79378 18.596 8.57712 18.596C8.19762 18.596 7.9027 18.4368 7.69237 18.1183C7.4822 17.7998 7.45337 17.4642 7.60587 17.1115L9.81562 11.9135L2.75412 4.86152C2.61562 4.72302 2.54478 4.54902 2.54162 4.33952C2.53828 4.12985 2.60912 3.9526 2.75412 3.80777C2.89895 3.66293 3.07453 3.59052 3.28087 3.59052C3.48737 3.59052 3.66303 3.66293 3.80787 3.80777L20.0961 20.096C20.2346 20.2345 20.3055 20.4086 20.3086 20.6183C20.312 20.8279 20.2411 21.0052 20.0961 21.15C19.9513 21.2948 19.7757 21.3673 19.5694 21.3673C19.3629 21.3673 19.1872 21.2948 19.0424 21.15Z" fill="black"/>
</g>
</svg>
