<svg width="24" height="24" viewBox="0 0 24 24" fill="none" xmlns="http://www.w3.org/2000/svg">
<mask id="mask0_138_5394" style="mask-type:alpha" maskUnits="userSpaceOnUse" x="0" y="0" width="24" height="24">
<rect width="24" height="24" fill="#D9D9D9"/>
</mask>
<g mask="url(#mask0_138_5394)">
<path d="M6.6807 20.973C6.53203 21.1282 6.35637 21.2042 6.1537 21.201C5.9512 21.1977 5.77562 21.1217 5.62695 20.973L3.1327 18.4788C2.95187 18.2981 2.86145 18.0872 2.86145 17.8462C2.86145 17.6051 2.95187 17.3942 3.1327 17.2135L5.62695 14.7288C5.77562 14.5801 5.9512 14.5042 6.1537 14.501C6.35637 14.4978 6.53203 14.5738 6.6807 14.7288C6.82937 14.8776 6.9037 15.0558 6.9037 15.2635C6.9037 15.4712 6.82937 15.6493 6.6807 15.798L5.3827 17.0962H18.6172L17.3287 15.798C17.1904 15.6493 17.117 15.4728 17.1087 15.2683C17.1004 15.0638 17.1737 14.8839 17.3287 14.7288C17.4839 14.5738 17.6595 14.4963 17.8557 14.4963C18.0519 14.4963 18.2275 14.5738 18.3827 14.7288L20.8672 17.2135C21.048 17.3942 21.1384 17.6051 21.1384 17.8462C21.1384 18.0872 21.048 18.2981 20.8672 18.4788L18.3729 20.973C18.2243 21.1217 18.0487 21.1977 17.8462 21.201C17.6435 21.2042 17.4679 21.1282 17.3192 20.973C17.1705 20.8243 17.0962 20.6462 17.0962 20.4385C17.0962 20.2308 17.1705 20.0526 17.3192 19.9038L18.627 18.596H5.37295L6.6807 19.9135C6.8192 20.0622 6.89103 20.2388 6.8962 20.4433C6.9012 20.6478 6.82937 20.8243 6.6807 20.973ZM7.6097 12.2327L11.102 2.94625C11.1558 2.80775 11.241 2.69875 11.3577 2.61925C11.4744 2.53975 11.607 2.5 11.7557 2.5H12.2827C12.4314 2.5 12.564 2.54133 12.6807 2.624C12.7974 2.70667 12.8826 2.81725 12.9365 2.95575L16.3902 12.248C16.4647 12.4673 16.4395 12.6732 16.3145 12.8655C16.1895 13.0577 16.0089 13.1538 15.7729 13.1538C15.6281 13.1538 15.4974 13.1141 15.3807 13.0348C15.264 12.9553 15.1788 12.843 15.125 12.698L14.2885 10.3348H9.7422L8.87495 12.7135C8.82112 12.852 8.73845 12.96 8.62695 13.0375C8.51528 13.115 8.38703 13.1538 8.2422 13.1538C7.99603 13.1538 7.80795 13.0551 7.67795 12.8577C7.54778 12.6602 7.52503 12.4519 7.6097 12.2327ZM10.1769 9.1H13.823L12.0692 4.18475H11.9692L10.1769 9.1Z" fill="black"/>
</g>
</svg>
