<svg width="24" height="24" viewBox="0 0 24 24" fill="none" xmlns="http://www.w3.org/2000/svg">
<mask id="mask0_138_5553" style="mask-type:alpha" maskUnits="userSpaceOnUse" x="0" y="0" width="24" height="24">
<rect width="24" height="24" fill="#D9D9D9"/>
</mask>
<g mask="url(#mask0_138_5553)">
<path d="M17.3038 7.89624C17.9794 8.53857 18.5143 9.32282 18.9085 10.249C19.3028 11.1753 19.5 12.1321 19.5 13.1192C19.5 13.4307 19.4798 13.7387 19.4395 14.0432C19.399 14.3477 19.3403 14.6538 19.2635 14.9615C19.193 15.2358 19.0138 15.4073 18.726 15.476C18.4382 15.5445 18.1872 15.4717 17.973 15.2577L9.3115 6.60574C9.13084 6.42507 9.043 6.21416 9.04801 5.97299C9.05317 5.73199 9.14617 5.52116 9.327 5.34049L11.0558 3.62124C11.1929 3.48407 11.3436 3.38532 11.5078 3.32499C11.6718 3.26482 11.8358 3.23474 12 3.23474C12.1642 3.23474 12.3298 3.26741 12.497 3.33274C12.6643 3.39807 12.8166 3.49424 12.9538 3.62124L17.3038 7.89624ZM12 20.5C9.918 20.5 8.14751 19.7804 6.68851 18.3412C5.22951 16.9022 4.50001 15.1616 4.50001 13.1192C4.50001 12.2307 4.65742 11.3868 4.97225 10.5875C5.28692 9.78816 5.72059 9.05257 6.27325 8.38074L2.6385 4.74624C2.5 4.60774 2.42917 4.43366 2.426 4.22399C2.42284 4.01449 2.49367 3.83724 2.6385 3.69224C2.78334 3.54741 2.959 3.47499 3.1655 3.47499C3.37184 3.47499 3.54742 3.54741 3.69226 3.69224L20.3653 20.3652C20.5038 20.5037 20.5746 20.6778 20.5778 20.8875C20.5811 21.0972 20.5103 21.2744 20.3653 21.4192C20.2204 21.5641 20.0448 21.6365 19.8385 21.6365C19.632 21.6365 19.4563 21.5641 19.3115 21.4192L16.7193 18.8267C16.0873 19.3551 15.3652 19.766 14.553 20.0595C13.7407 20.3532 12.8897 20.5 12 20.5Z" fill="black"/>
</g>
</svg>
