<svg width="24" height="24" viewBox="0 0 24 24" fill="none" xmlns="http://www.w3.org/2000/svg">
<mask id="mask0_138_5406" style="mask-type:alpha" maskUnits="userSpaceOnUse" x="0" y="0" width="24" height="24">
<rect width="24" height="24" fill="#D9D9D9"/>
</mask>
<g mask="url(#mask0_138_5406)">
<path d="M12.0005 21.5C10.8207 21.5 9.71542 21.2769 8.68475 20.8307C7.65392 20.3846 6.75517 19.7782 5.9885 19.0115C5.22183 18.2448 4.61542 17.3463 4.16925 16.316C3.72308 15.2855 3.5 14.1803 3.5 13.0005C3.5 11.8207 3.72308 10.7154 4.16925 9.68473C4.61542 8.6539 5.22183 7.75515 5.9885 6.98848C6.75517 6.22182 7.65375 5.6154 8.68425 5.16923C9.71475 4.72307 10.82 4.49998 12 4.49998H12.2655L11.1845 3.41923C11.0295 3.26407 10.9545 3.0884 10.9595 2.89223C10.9647 2.69607 11.039 2.52048 11.1825 2.36548C11.339 2.21032 11.5195 2.13173 11.724 2.12973C11.9285 2.1279 12.1051 2.20132 12.2537 2.34998L14.521 4.60773C14.7018 4.7884 14.7923 4.99932 14.7923 5.24048C14.7923 5.48148 14.7018 5.69232 14.521 5.87298L12.273 8.13073C12.1178 8.2859 11.9397 8.3609 11.7385 8.35573C11.5372 8.35057 11.3583 8.2704 11.2018 8.11523C11.0583 7.96023 10.9856 7.78307 10.9838 7.58373C10.9818 7.3844 11.0551 7.21032 11.2038 7.06148L12.2655 5.99998H12C10.05 5.99998 8.39583 6.67915 7.0375 8.03748C5.67917 9.39582 5 11.05 5 13C5 14.95 5.67917 16.6041 7.0375 17.9625C8.39583 19.3208 10.05 20 12 20C13.95 20 15.6042 19.3208 16.9625 17.9625C18.3208 16.6041 19 14.95 19 13C19 12.7875 19.0719 12.6094 19.2158 12.4657C19.3596 12.3219 19.5378 12.25 19.7502 12.25C19.9629 12.25 20.141 12.3219 20.2845 12.4657C20.4282 12.6094 20.5 12.7875 20.5 13C20.5 14.18 20.2769 15.2852 19.8307 16.3157C19.3846 17.3462 18.7782 18.2448 18.0115 19.0115C17.2448 19.7782 16.3463 20.3846 15.316 20.8307C14.2855 21.2769 13.1803 21.5 12.0005 21.5ZM9.2115 11.3462H8.3655C8.19317 11.3462 8.05075 11.2899 7.93825 11.1772C7.82558 11.0647 7.76925 10.9225 7.76925 10.7505C7.76925 10.5783 7.82558 10.4358 7.93825 10.323C8.05075 10.2101 8.19317 10.1537 8.3655 10.1537H9.80775C9.97992 10.1537 10.1223 10.2101 10.235 10.3227C10.3475 10.4354 10.4037 10.5778 10.4037 10.75V15.25C10.4037 15.4222 10.3475 15.5646 10.235 15.6772C10.1225 15.7899 9.98025 15.8462 9.80825 15.8462C9.63608 15.8462 9.49358 15.7899 9.38075 15.6772C9.26792 15.5646 9.2115 15.4222 9.2115 15.25V11.3462ZM12.5963 15.8462C12.3129 15.8462 12.0754 15.7504 11.8837 15.5587C11.6921 15.3671 11.5963 15.1296 11.5963 14.8462V11.1537C11.5963 10.8704 11.6921 10.6329 11.8837 10.4412C12.0754 10.2496 12.3129 10.1537 12.5963 10.1537H14.4808C14.7641 10.1537 15.0016 10.2496 15.1932 10.4412C15.3849 10.6329 15.4808 10.8704 15.4808 11.1537V14.8462C15.4808 15.1296 15.3849 15.3671 15.1932 15.5587C15.0016 15.7504 14.7641 15.8462 14.4808 15.8462H12.5963ZM12.9038 14.6537H14.173C14.2115 14.6537 14.2404 14.6442 14.2598 14.625C14.2789 14.6058 14.2885 14.577 14.2885 14.5385V11.4615C14.2885 11.423 14.2789 11.3942 14.2598 11.375C14.2404 11.3558 14.2115 11.3462 14.173 11.3462H12.9038C12.8654 11.3462 12.8366 11.3558 12.8173 11.375C12.7981 11.3942 12.7885 11.423 12.7885 11.4615V14.5385C12.7885 14.577 12.7981 14.6058 12.8173 14.625C12.8366 14.6442 12.8654 14.6537 12.9038 14.6537Z" fill="black"/>
</g>
</svg>
