<svg width="24" height="24" viewBox="0 0 24 24" fill="none" xmlns="http://www.w3.org/2000/svg">
<mask id="mask0_138_5415" style="mask-type:alpha" maskUnits="userSpaceOnUse" x="0" y="0" width="24" height="24">
<rect width="24" height="24" fill="#D9D9D9"/>
</mask>
<g mask="url(#mask0_138_5415)">
<path d="M12 21.5C10.8205 21.5 9.71542 21.2769 8.68475 20.8307C7.65392 20.3846 6.75517 19.7781 5.9885 19.0115C5.22183 18.2448 4.61542 17.3461 4.16925 16.3152C3.72308 15.2846 3.5 14.1795 3.5 13C3.5 11.8205 3.72308 10.7154 4.16925 9.68472C4.61542 8.65389 5.22183 7.75514 5.9885 6.98847C6.75517 6.2218 7.65392 5.61539 8.68475 5.16922C9.71542 4.72305 10.8205 4.49997 12 4.49997H12.2655L11.1845 3.41922C11.0397 3.27439 10.9673 3.1013 10.9673 2.89997C10.9673 2.69864 11.0397 2.52047 11.1845 2.36547C11.3333 2.21664 11.51 2.13972 11.7145 2.13472C11.9188 2.12955 12.0986 2.2013 12.2537 2.34997L14.521 4.60772C14.6915 4.77822 14.7768 4.98914 14.7768 5.24047C14.7768 5.49164 14.6915 5.70247 14.521 5.87297L12.273 8.13072C12.1243 8.28589 11.9478 8.36089 11.7433 8.35572C11.5388 8.35055 11.3589 8.27039 11.2038 8.11522C11.0589 7.96022 10.9865 7.78205 10.9865 7.58072C10.9865 7.37939 11.0589 7.2063 11.2038 7.06147L12.2655 5.99997H12C10.05 5.99997 8.39583 6.67914 7.0375 8.03747C5.67917 9.3958 5 11.05 5 13C5 14.95 5.67917 16.6041 7.0375 17.9625C8.39583 19.3208 10.05 20 12 20C13.8052 20 15.3693 19.4041 16.6923 18.2125C18.0154 17.0208 18.7712 15.5307 18.9595 13.7422C18.9865 13.5332 19.0727 13.3573 19.2182 13.2145C19.3637 13.0715 19.541 13 19.75 13C19.9525 13 20.1282 13.0656 20.277 13.197C20.4257 13.3285 20.4898 13.4904 20.4693 13.6827C20.2871 15.9032 19.3877 17.7612 17.7712 19.2567C16.1546 20.7522 14.2308 21.5 12 21.5Z" fill="black"/>
</g>
</svg>
