<svg width="24" height="24" viewBox="0 0 24 24" fill="none" xmlns="http://www.w3.org/2000/svg">
<mask id="mask0_138_5427" style="mask-type:alpha" maskUnits="userSpaceOnUse" x="0" y="0" width="24" height="24">
<rect width="24" height="24" fill="#D9D9D9"/>
</mask>
<g mask="url(#mask0_138_5427)">
<path d="M5.57311 20.75C4.90644 20.75 4.36228 20.5693 3.94061 20.2078C3.51878 19.8461 3.30786 19.3673 3.30786 18.7712C3.30786 18.3212 3.42544 17.9593 3.66061 17.6855C3.89594 17.4118 4.19503 17.275 4.55786 17.275C4.90403 17.275 5.19886 17.3943 5.44236 17.6328C5.68603 17.8713 5.80786 18.1584 5.80786 18.4943C5.80786 18.6289 5.77803 18.7472 5.71836 18.849C5.65869 18.951 5.58528 19.0308 5.49811 19.0885C5.53011 19.1205 5.57503 19.1477 5.63286 19.1702C5.69053 19.1926 5.75461 19.2038 5.82511 19.2038C6.04311 19.1936 6.22136 19.0933 6.35986 18.903C6.49819 18.7125 6.60969 18.4192 6.69436 18.023L8.25411 9.75H6.09636C5.88353 9.75 5.70528 9.67817 5.56161 9.5345C5.41811 9.391 5.34636 9.21283 5.34636 9C5.34636 8.78717 5.41811 8.609 5.56161 8.4655C5.70528 8.32183 5.88353 8.25 6.09636 8.25H8.53286L9.03861 5.5155C9.16811 4.81167 9.45819 4.25808 9.90886 3.85475C10.3595 3.45158 10.9124 3.25 11.5674 3.25C12.2239 3.25 12.7629 3.44267 13.1846 3.828C13.6064 4.21317 13.8174 4.69867 13.8174 5.2845C13.8174 5.714 13.6998 6.06567 13.4646 6.3395C13.2293 6.61317 12.9302 6.75 12.5674 6.75C12.2212 6.75 11.9264 6.63233 11.6829 6.397C11.4392 6.16183 11.3174 5.87117 11.3174 5.525C11.3174 5.39033 11.3472 5.27208 11.4069 5.17025C11.4665 5.06825 11.5431 4.98842 11.6366 4.93075C11.6046 4.89225 11.5549 4.86017 11.4876 4.8345C11.4203 4.809 11.3514 4.79625 11.2809 4.79625C11.0719 4.81675 10.9055 4.90842 10.7819 5.07125C10.6582 5.23408 10.5636 5.47508 10.4981 5.79425L10.0731 8.25H13.9039C14.1167 8.25 14.2949 8.32183 14.4386 8.4655C14.5821 8.609 14.6539 8.78717 14.6539 9C14.6539 9.19233 14.5924 9.35775 14.4694 9.49625C14.3462 9.63458 14.1936 9.714 14.0116 9.7345H13.5404L15.4039 11.8598L17.2674 9.7345H16.7964C16.6142 9.714 16.4616 9.63458 16.3386 9.49625C16.2154 9.35775 16.1539 9.19233 16.1539 9C16.1539 8.78717 16.2257 8.609 16.3694 8.4655C16.5129 8.32183 16.691 8.25 16.9039 8.25H19.9039C20.1167 8.25 20.2949 8.32183 20.4386 8.4655C20.5821 8.609 20.6539 8.78717 20.6539 9C20.6539 9.21283 20.5821 9.391 20.4386 9.5345C20.2949 9.67817 20.1167 9.75 19.9039 9.75H19.2386L16.4021 13L19.2481 16.25H19.9039C20.1167 16.25 20.2949 16.3218 20.4386 16.4655C20.5821 16.609 20.6539 16.7872 20.6539 17C20.6539 17.2128 20.5821 17.391 20.4386 17.5345C20.2949 17.6782 20.1167 17.75 19.9039 17.75H16.9039C16.691 17.75 16.5129 17.6782 16.3694 17.5345C16.2257 17.391 16.1539 17.2128 16.1539 17C16.1539 16.8077 16.2154 16.6423 16.3386 16.5038C16.4616 16.3654 16.6142 16.286 16.7964 16.2655H17.2674L15.4039 14.125L13.5404 16.2655H14.0116C14.1936 16.286 14.3462 16.3654 14.4694 16.5038C14.5924 16.6423 14.6539 16.8077 14.6539 17C14.6539 17.2128 14.5821 17.391 14.4386 17.5345C14.2949 17.6782 14.1167 17.75 13.9039 17.75H10.9039C10.691 17.75 10.5129 17.6782 10.3694 17.5345C10.2257 17.391 10.1539 17.2128 10.1539 17C10.1539 16.7872 10.2257 16.609 10.3694 16.4655C10.5129 16.3218 10.691 16.25 10.9039 16.25H11.5694L14.4059 13L11.5694 9.75H9.78461L8.18461 18.148C8.02578 19.0007 7.72553 19.6475 7.28386 20.0885C6.8422 20.5295 6.27194 20.75 5.57311 20.75Z" fill="black"/>
</g>
</svg>
