<svg width="24" height="24" viewBox="0 0 24 24" fill="none" xmlns="http://www.w3.org/2000/svg">
<mask id="mask0_138_5460" style="mask-type:alpha" maskUnits="userSpaceOnUse" x="0" y="0" width="24" height="24">
<rect width="24" height="24" fill="#D9D9D9"/>
</mask>
<g mask="url(#mask0_138_5460)">
<path d="M11.7885 19.9712C11.8872 19.9712 11.9875 19.9481 12.0895 19.902C12.1913 19.8558 12.2718 19.8032 12.3308 19.7442L20.3288 11.7462C20.5544 11.5206 20.7243 11.2795 20.8385 11.023C20.9525 10.7666 21.0095 10.4975 21.0095 10.2155C21.0095 9.92315 20.9525 9.64173 20.8385 9.37123C20.7243 9.10056 20.5544 8.85756 20.3288 8.64223L16.3288 4.64223C16.1134 4.41656 15.8801 4.25148 15.6288 4.14698C15.3776 4.04265 15.1058 3.99048 14.8135 3.99048C14.5315 3.99048 14.2607 4.04265 14.001 4.14698C13.7413 4.25148 13.5019 4.41656 13.2828 4.64223L12.7095 5.21548L14.5595 7.08073C14.7838 7.29489 14.9496 7.53914 15.0568 7.81348C15.1638 8.08781 15.2173 8.3724 15.2173 8.66723C15.2173 9.27756 15.0134 9.78656 14.6058 10.1942C14.1981 10.6019 13.6891 10.8057 13.0788 10.8057C12.7839 10.8057 12.4983 10.757 12.222 10.6595C11.9458 10.5621 11.7007 10.4064 11.4865 10.1922L9.81351 8.53473C9.75585 8.4769 9.6821 8.44798 9.59226 8.44798C9.5026 8.44798 9.42893 8.4769 9.37126 8.53473L5.24626 12.6595C5.1706 12.7351 5.11385 12.8198 5.07601 12.9135C5.03818 13.007 5.01926 13.1031 5.01926 13.202C5.01926 13.3865 5.0821 13.5441 5.20776 13.675C5.33343 13.8058 5.48851 13.8712 5.67301 13.8712C5.77185 13.8712 5.87218 13.8481 5.97401 13.802C6.07601 13.7558 6.15651 13.7032 6.21551 13.6442L8.97301 10.8865C9.11151 10.748 9.28301 10.6746 9.48751 10.6662C9.69201 10.6579 9.87185 10.7313 10.027 10.8865C10.1718 11.0313 10.2443 11.207 10.2443 11.4135C10.2443 11.6198 10.1718 11.7954 10.027 11.9402L7.28451 14.698C7.20901 14.7736 7.15234 14.8583 7.11451 14.952C7.07668 15.0455 7.05776 15.1416 7.05776 15.2405C7.05776 15.4186 7.12218 15.5721 7.25101 15.701C7.37985 15.8298 7.53334 15.8942 7.71151 15.8942C7.81035 15.8942 7.91068 15.8711 8.01251 15.825C8.11451 15.7788 8.19493 15.7262 8.25376 15.6672L11.127 12.8095C11.2655 12.6711 11.4369 12.5978 11.6413 12.5895C11.8458 12.5811 12.0256 12.6545 12.1808 12.8095C12.3256 12.9545 12.398 13.1301 12.398 13.3365C12.398 13.5428 12.3256 13.7185 12.1808 13.8635L9.32301 16.7365C9.25385 16.7955 9.19876 16.8759 9.15776 16.9777C9.11676 17.0797 9.09626 17.1801 9.09626 17.2787C9.09626 17.4571 9.16068 17.6106 9.28951 17.7395C9.41834 17.8683 9.57185 17.9327 9.75001 17.9327C9.84868 17.9327 9.94485 17.9138 10.0385 17.876C10.132 17.8381 10.2166 17.7814 10.2923 17.7057L13.1655 14.848C13.3038 14.7095 13.4753 14.6361 13.6798 14.6277C13.8843 14.6194 14.0641 14.6928 14.2193 14.848C14.3641 14.9928 14.4365 15.1685 14.4365 15.375C14.4365 15.5813 14.3641 15.757 14.2193 15.902L11.3463 18.775C11.2706 18.8506 11.2138 18.9385 11.176 19.0385C11.1382 19.1385 11.1193 19.2346 11.1193 19.327C11.1193 19.5115 11.1878 19.665 11.325 19.7875C11.4622 19.91 11.6167 19.9712 11.7885 19.9712ZM11.773 21.471C11.2077 21.471 10.7148 21.2749 10.2943 20.8827C9.87376 20.4904 9.65393 20.0019 9.63476 19.4172C9.0681 19.3787 8.59468 19.1775 8.21451 18.8135C7.83435 18.4493 7.62826 17.9711 7.59626 17.3787C7.00393 17.3404 6.5251 17.1334 6.15976 16.7577C5.79426 16.3821 5.59868 15.9096 5.57301 15.3402C4.97818 15.3019 4.48718 15.0862 4.10001 14.6932C3.71284 14.3002 3.51926 13.8031 3.51926 13.202C3.51926 12.9071 3.57535 12.6183 3.68751 12.3355C3.79968 12.0528 3.96285 11.8045 4.17701 11.5905L8.31151 7.45573C8.65635 7.11089 9.08068 6.93848 9.58451 6.93848C10.0885 6.93848 10.5129 7.11089 10.8578 7.45573L12.5213 9.11923C12.5801 9.1884 12.6573 9.24356 12.7528 9.28473C12.8484 9.32573 12.952 9.34623 13.0635 9.34623C13.2455 9.34623 13.4025 9.28598 13.5345 9.16548C13.6667 9.04498 13.7328 8.88723 13.7328 8.69223C13.7328 8.58073 13.7123 8.47723 13.6713 8.38173C13.6301 8.28623 13.5749 8.20898 13.5058 8.14998L9.99801 4.64223C9.78268 4.41656 9.54776 4.25148 9.29326 4.14698C9.03876 4.04265 8.76535 3.99048 8.47301 3.99048C8.19101 3.99048 7.92343 4.04265 7.67026 4.14698C7.41693 4.25148 7.17751 4.41656 6.95201 4.64223L3.66726 7.94223C3.37626 8.23323 3.18076 8.58356 3.08076 8.99323C2.98076 9.40289 2.99101 9.80131 3.11151 10.1885C3.15518 10.3948 3.11768 10.5823 2.99901 10.751C2.88051 10.9195 2.71801 11.0204 2.51151 11.0537C2.30518 11.0871 2.11609 11.0471 1.94426 10.9337C1.77243 10.8202 1.66984 10.6602 1.63651 10.4537C1.47884 9.81406 1.47826 9.17723 1.63476 8.54323C1.79109 7.90923 2.11218 7.34931 2.59801 6.86348L5.87301 3.58848C6.24751 3.22431 6.65493 2.95031 7.09526 2.76648C7.5356 2.58248 7.9981 2.49048 8.48276 2.49048C8.96726 2.49048 9.4281 2.58248 9.86526 2.76648C10.3026 2.95031 10.7033 3.22431 11.0673 3.58848L11.6405 4.16148L12.2135 3.58848C12.5878 3.22431 12.9936 2.95031 13.4308 2.76648C13.8679 2.58248 14.3288 2.49048 14.8135 2.49048C15.2982 2.49048 15.7607 2.58248 16.201 2.76648C16.6413 2.95031 17.0436 3.22431 17.4078 3.58848L21.3828 7.56348C21.7468 7.92764 22.0256 8.34206 22.2193 8.80673C22.4128 9.2714 22.5095 9.74606 22.5095 10.2307C22.5095 10.7154 22.4128 11.1763 22.2193 11.6135C22.0256 12.0506 21.7468 12.4512 21.3828 12.8152L13.3845 20.798C13.164 21.0185 12.9157 21.1858 12.6395 21.3C12.3632 21.414 12.0743 21.471 11.773 21.471Z" fill="black"/>
</g>
</svg>
