<svg width="24" height="24" viewBox="0 0 24 24" fill="none" xmlns="http://www.w3.org/2000/svg">
<mask id="mask0_138_5457" style="mask-type:alpha" maskUnits="userSpaceOnUse" x="0" y="0" width="24" height="24">
<rect width="24" height="24" fill="#D9D9D9"/>
</mask>
<g mask="url(#mask0_138_5457)">
<path d="M11.9462 20.8558C11.682 20.8558 11.4557 20.7663 11.2672 20.5875C11.0787 20.4087 10.9844 20.1808 10.9844 19.9038C10.9844 19.7808 11.0111 19.6488 11.0644 19.5078C11.1176 19.3668 11.1973 19.243 11.3037 19.1365L15.1459 15.2943C15.2396 15.2006 15.2864 15.0942 15.2864 14.975C15.2864 14.8558 15.2396 14.7494 15.1459 14.6558C15.0524 14.5623 14.9444 14.5197 14.8219 14.528C14.6996 14.5363 14.5948 14.5841 14.5077 14.6713L10.6807 18.498C10.5743 18.6045 10.4564 18.6843 10.3269 18.7375C10.1974 18.7907 10.0628 18.8173 9.92293 18.8173C9.65243 18.8173 9.4246 18.7247 9.23943 18.5395C9.0541 18.3542 8.96143 18.1263 8.96143 17.8558C8.96143 17.6956 8.98968 17.5517 9.04618 17.424C9.10251 17.2965 9.1756 17.1878 9.26543 17.098L13.1077 13.2558C13.2012 13.1623 13.2479 13.0584 13.2479 12.9443C13.2479 12.8301 13.2012 12.7263 13.1077 12.6328C13.014 12.5391 12.9085 12.4939 12.7912 12.4973C12.6738 12.5004 12.5716 12.5456 12.4844 12.6328L8.64218 16.4595C8.54218 16.5595 8.42585 16.6378 8.29318 16.6943C8.16051 16.7506 8.01918 16.7788 7.86918 16.7788C7.60885 16.7788 7.38351 16.6836 7.19318 16.4933C7.00285 16.3029 6.90768 16.0776 6.90768 15.8173C6.90768 15.6776 6.93426 15.543 6.98743 15.4135C7.0406 15.284 7.12043 15.166 7.22693 15.0595L10.9384 11.348C11.0319 11.2545 11.0787 11.1482 11.0787 11.029C11.0787 10.9097 11.0319 10.8033 10.9384 10.7098C10.8448 10.6161 10.7393 10.5708 10.6219 10.574C10.5046 10.5773 10.4023 10.6226 10.3152 10.7098L6.60368 14.4365C6.51401 14.5263 6.40285 14.5994 6.27018 14.6558C6.13751 14.7123 5.99101 14.7405 5.83068 14.7405C5.55385 14.7405 5.32435 14.6494 5.14218 14.4673C4.96018 14.2853 4.86918 14.0558 4.86918 13.7788C4.86918 13.6391 4.89576 13.5045 4.94893 13.375C5.0021 13.2455 5.08193 13.1276 5.18843 13.0213L9.80943 8.4C9.98643 8.22317 10.2012 8.13984 10.4537 8.15C10.7063 8.16034 10.9211 8.25392 11.0979 8.43075L13.3979 10.7308C13.5813 10.9141 13.7931 11.0519 14.0334 11.1443C14.2739 11.2366 14.5159 11.2828 14.7594 11.2828C15.2671 11.2828 15.7018 11.1097 16.0634 10.7635C16.4249 10.4173 16.6057 9.975 16.6057 9.4365C16.6057 9.20317 16.5624 8.96475 16.4759 8.72125C16.3893 8.47759 16.244 8.25384 16.0402 8.05L13.6442 5.654C13.3838 5.39367 13.2278 5.09909 13.1759 4.77025C13.1239 4.44142 13.2043 4.15134 13.4172 3.9C13.5993 3.6565 13.8198 3.47642 14.0787 3.35975C14.3377 3.24309 14.6153 3.18475 14.9114 3.18475C15.2423 3.18475 15.5749 3.25684 15.9094 3.401C16.2441 3.54517 16.5486 3.75442 16.8229 4.02875L21.0769 8.298C21.3319 8.55317 21.5255 8.84809 21.6577 9.18275C21.7897 9.51725 21.8557 9.89734 21.8557 10.323C21.8557 10.6563 21.7871 10.9827 21.6499 11.302C21.5128 11.6212 21.3218 11.9032 21.0769 12.148L12.7037 20.5365C12.5832 20.657 12.4618 20.7403 12.3394 20.7865C12.2169 20.8327 12.0858 20.8558 11.9462 20.8558ZM3.08268 12.25C2.74668 11.9782 2.49318 11.6605 2.32218 11.297C2.15101 10.9337 2.06543 10.5558 2.06543 10.1635C2.06543 9.793 2.13818 9.43242 2.28368 9.08175C2.42918 8.73109 2.64551 8.41217 2.93268 8.125L7.01343 4.02875C7.2646 3.77759 7.54185 3.58342 7.84518 3.44625C8.14835 3.30909 8.47235 3.2405 8.81718 3.2405C9.18251 3.2405 9.53701 3.30909 9.88068 3.44625C10.2242 3.58342 10.5216 3.77759 10.7729 4.02875L15.4172 8.673C15.5133 8.76917 15.5906 8.883 15.6489 9.0145C15.7073 9.14584 15.7364 9.28142 15.7364 9.42125C15.7364 9.69175 15.6438 9.92117 15.4584 10.1095C15.2733 10.298 15.0454 10.3923 14.7749 10.3923C14.6288 10.3923 14.4899 10.3631 14.3584 10.3048C14.2271 10.2464 14.1133 10.1692 14.0172 10.073L11.7114 7.78275C11.3666 7.43792 10.9423 7.2655 10.4384 7.2655C9.9346 7.2655 9.51026 7.43792 9.16543 7.78275L4.70568 12.2423C4.48268 12.4654 4.21893 12.5732 3.91443 12.5655C3.60993 12.5577 3.33268 12.4525 3.08268 12.25Z" fill="black"/>
</g>
</svg>
