<svg width="24" height="24" viewBox="0 0 24 24" fill="none" xmlns="http://www.w3.org/2000/svg">
<mask id="mask0_138_5508" style="mask-type:alpha" maskUnits="userSpaceOnUse" x="0" y="0" width="24" height="24">
<rect width="24" height="24" fill="#D9D9D9"/>
</mask>
<g mask="url(#mask0_138_5508)">
<path d="M12.75 17.1848C13.5218 16.7834 14.2994 16.4889 15.0828 16.301C15.8661 16.1132 16.6718 16.0193 17.5 16.0193C18.1 16.0193 18.6635 16.0629 19.1905 16.15C19.7173 16.2372 20.2179 16.3615 20.6923 16.523C20.7693 16.5552 20.8398 16.5504 20.9038 16.5088C20.9679 16.4671 21 16.4014 21 16.3115V6.85378C21 6.79611 20.984 6.74486 20.952 6.70002C20.9198 6.65519 20.8653 6.61669 20.7885 6.58452C20.2385 6.37052 19.7029 6.21636 19.1818 6.12202C18.6606 6.02786 18.1 5.98077 17.5 5.98077C16.6718 5.98077 15.8487 6.09519 15.0307 6.32403C14.2127 6.55286 13.4525 6.89611 12.75 7.35378V17.1848ZM12 18.9653C11.8052 18.9653 11.6228 18.9409 11.453 18.8923C11.283 18.8436 11.1224 18.7789 10.9713 18.698C10.2828 18.3084 9.5625 18.0144 8.8105 17.8163C8.05867 17.6183 7.2885 17.5193 6.5 17.5193C5.88983 17.5193 5.2905 17.5869 4.702 17.722C4.1135 17.8574 3.54617 18.0564 3 18.3193C2.64367 18.4833 2.30458 18.4573 1.98275 18.2413C1.66092 18.0253 1.5 17.7192 1.5 17.323V6.46552C1.5 6.25002 1.5555 6.04777 1.6665 5.85877C1.77733 5.66961 1.93725 5.53336 2.14625 5.45002C2.83342 5.13086 3.54142 4.88952 4.27025 4.72602C4.99908 4.56252 5.74233 4.48077 6.5 4.48077C7.473 4.48077 8.42367 4.61377 9.352 4.87977C10.2802 5.14594 11.1628 5.53861 12 6.05777C12.8372 5.53861 13.7198 5.14594 14.648 4.87977C15.5763 4.61377 16.527 4.48077 17.5 4.48077C18.2577 4.48077 19.0009 4.56252 19.7297 4.72602C20.4586 4.88952 21.1666 5.13086 21.8538 5.45002C22.0627 5.53336 22.2227 5.66961 22.3335 5.85877C22.4445 6.04777 22.5 6.25002 22.5 6.46552V17.323C22.5 17.7192 22.3327 18.0221 21.998 18.2318C21.6633 18.4413 21.3114 18.464 20.9423 18.3C20.4026 18.0435 19.8433 17.8493 19.2645 17.7173C18.6857 17.5853 18.0975 17.5193 17.5 17.5193C16.7115 17.5193 15.9413 17.6183 15.1895 17.8163C14.4375 18.0144 13.7173 18.3084 13.0288 18.698C12.8776 18.7789 12.717 18.8436 12.547 18.8923C12.3772 18.9409 12.1948 18.9653 12 18.9653Z" fill="black"/>
</g>
</svg>
