<svg width="24" height="24" viewBox="0 0 24 24" fill="none" xmlns="http://www.w3.org/2000/svg">
<mask id="mask0_138_5544" style="mask-type:alpha" maskUnits="userSpaceOnUse" x="0" y="0" width="24" height="24">
<rect width="24" height="24" fill="#D9D9D9"/>
</mask>
<g mask="url(#mask0_138_5544)">
<path d="M3.1422 9.37122L6.2307 3.89222C6.32437 3.72822 6.4382 3.60931 6.5722 3.53547C6.70637 3.46181 6.85545 3.42497 7.01945 3.42497C7.18345 3.42497 7.33237 3.46181 7.4662 3.53547C7.6002 3.60931 7.71403 3.72822 7.8077 3.89222L10.8962 9.37122C10.9795 9.52306 11.017 9.67489 11.0087 9.82672C11.0004 9.97856 10.9577 10.1228 10.8807 10.2595C10.8057 10.3951 10.7007 10.5044 10.5657 10.5872C10.4309 10.6701 10.2777 10.7115 10.1062 10.7115H3.9322C3.7607 10.7115 3.60745 10.6701 3.47245 10.5872C3.33762 10.5044 3.2327 10.3951 3.1577 10.2595C3.0807 10.1228 3.03803 9.97856 3.0297 9.82672C3.02137 9.67489 3.05887 9.52306 3.1422 9.37122ZM7.0287 20.7595C5.98653 20.7595 5.09937 20.3935 4.3672 19.6615C3.6352 18.9295 3.2692 18.0423 3.2692 17C3.2692 15.9576 3.6352 15.0705 4.3672 14.3385C5.09937 13.6065 5.98653 13.2405 7.0287 13.2405C8.07103 13.2405 8.9582 13.6065 9.6902 14.3385C10.4224 15.0705 10.7885 15.9576 10.7885 17C10.7885 18.0423 10.4224 18.9295 9.6902 19.6615C8.9582 20.3935 8.07103 20.7595 7.0287 20.7595ZM13.2597 19.8557V14.1442C13.2597 13.8881 13.3463 13.6734 13.5195 13.5002C13.6926 13.3271 13.9073 13.2405 14.1635 13.2405H19.875C20.131 13.2405 20.3456 13.3271 20.519 13.5002C20.6921 13.6734 20.7787 13.8881 20.7787 14.1442V19.8557C20.7787 20.1119 20.6921 20.3266 20.519 20.4997C20.3456 20.6729 20.131 20.7595 19.875 20.7595H14.1635C13.9073 20.7595 13.6926 20.6729 13.5195 20.4997C13.3463 20.3266 13.2597 20.1119 13.2597 19.8557ZM16.4365 10.2287L15.3422 9.31547C14.3334 8.48331 13.5946 7.77689 13.126 7.19622C12.6573 6.61539 12.423 5.98014 12.423 5.29047C12.423 4.61731 12.6519 4.05447 13.1097 3.60197C13.5674 3.14931 14.143 2.92297 14.8365 2.92297C15.2608 2.92297 15.6575 3.02397 16.0267 3.22597C16.396 3.42797 16.7269 3.71864 17.0192 4.09797C17.3115 3.72497 17.6455 3.43589 18.0212 3.23072C18.3967 3.02556 18.7935 2.92297 19.2115 2.92297C19.8961 2.92297 20.468 3.15439 20.927 3.61722C21.3858 4.08006 21.6152 4.64739 21.6152 5.31922C21.6152 6.00256 21.381 6.63139 20.9125 7.20572C20.4438 7.78006 19.705 8.48331 18.6962 9.31547L17.602 10.2287C17.4375 10.3762 17.2431 10.45 17.019 10.45C16.7948 10.45 16.6006 10.3762 16.4365 10.2287Z" fill="black"/>
</g>
</svg>
