<svg width="24" height="24" viewBox="0 0 24 24" fill="none" xmlns="http://www.w3.org/2000/svg">
<mask id="mask0_292_1969" style="mask-type:alpha" maskUnits="userSpaceOnUse" x="0" y="-1" width="25" height="25">
<rect x="0.0551758" y="-0.237549" width="24" height="24" fill="#D9D9D9"/>
</mask>
<g mask="url(#mask0_292_1969)">
<path d="M11.5336 20.4338C17.3508 20.4338 22.0672 16.3072 22.0672 11.2169C22.0672 6.12653 17.3508 2 11.5336 2C5.71641 2 1 6.12653 1 11.2169C1 13.5343 1.97831 15.6542 3.5939 17.2737C3.46618 18.6115 3.04483 20.0783 2.57872 21.179C2.4747 21.4239 2.67616 21.6978 2.93818 21.6557C5.90865 21.1685 7.67435 20.4206 8.44198 20.0309C9.45028 20.3007 10.4898 20.4362 11.5336 20.4338Z" fill="black"/>
</g>
</svg>
