<svg width="24" height="24" viewBox="0 0 24 24" fill="none" xmlns="http://www.w3.org/2000/svg">
<mask id="mask0_138_5079" style="mask-type:alpha" maskUnits="userSpaceOnUse" x="0" y="0" width="24" height="24">
<rect width="24" height="24" fill="#D9D9D9"/>
</mask>
<g mask="url(#mask0_138_5079)">
<path d="M12.3443 10.746L8.27125 14.8192C8.13275 14.9576 7.95867 15.0284 7.749 15.0317C7.5395 15.0349 7.36225 14.9641 7.21725 14.8192C7.07242 14.6742 7 14.4986 7 14.2923C7 14.0859 7.07242 13.9103 7.21725 13.7653L11.7115 9.271C11.8923 9.09033 12.1033 9 12.3443 9C12.5853 9 12.7962 9.09033 12.977 9.271L17.4713 13.7653C17.6096 13.9038 17.6804 14.0778 17.6838 14.2875C17.6869 14.497 17.6161 14.6742 17.4713 14.8192C17.3263 14.9641 17.1506 15.0365 16.9443 15.0365C16.7379 15.0365 16.5623 14.9641 16.4172 14.8192L12.3443 10.746Z" fill="black"/>
</g>
</svg>
