<svg width="24" height="24" viewBox="0 0 24 24" fill="none" xmlns="http://www.w3.org/2000/svg">
<mask id="mask0_138_4872" style="mask-type:alpha" maskUnits="userSpaceOnUse" x="0" y="0" width="24" height="24">
<rect width="24" height="24" fill="#D9D9D9"/>
</mask>
<g mask="url(#mask0_138_4872)">
<path d="M3.5 17.1115V9.89426C3.5 9.47626 3.65392 9.12726 3.96175 8.84726C4.26942 8.56709 4.63283 8.44367 5.052 8.47701C6.35583 8.67701 7.59392 9.06451 8.76625 9.63951C9.93875 10.2145 11.0167 10.9475 12 11.8385C12.9833 10.9475 14.0612 10.2145 15.2337 9.63951C16.4061 9.06451 17.6442 8.67701 18.948 8.47701C19.3672 8.44367 19.7306 8.56709 20.0383 8.84726C20.3461 9.12726 20.5 9.47626 20.5 9.89426V17.1115C20.5 17.5102 20.3682 17.8522 20.1047 18.1375C19.8412 18.4227 19.5102 18.5819 19.1115 18.6153C17.9935 18.7884 16.9329 19.0651 15.9298 19.4453C14.9266 19.8253 13.966 20.3383 13.048 20.9845C12.8903 21.1088 12.7247 21.2005 12.5512 21.2595C12.3776 21.3185 12.1936 21.348 11.9993 21.348C11.8049 21.348 11.6212 21.3185 11.448 21.2595C11.275 21.2005 11.1097 21.1088 10.952 20.9845C10.034 20.3383 9.075 19.8253 8.075 19.4453C7.075 19.0651 6.01283 18.7884 4.8885 18.6153C4.48983 18.5819 4.15875 18.4227 3.89525 18.1375C3.63175 17.8522 3.5 17.5102 3.5 17.1115ZM12 19.8808C13.05 19.1039 14.1667 18.4808 15.35 18.0113C16.5333 17.5418 17.75 17.2316 19 17.0808V9.9885C17.7385 10.2052 16.517 10.6347 15.3355 11.277C14.1542 11.9192 13.0423 12.7614 12 13.8038C10.9577 12.7614 9.84583 11.9192 8.6645 11.277C7.483 10.6347 6.2615 10.2052 5 9.9885V17.0808C6.25 17.2316 7.46667 17.5418 8.65 18.0113C9.83333 18.4808 10.95 19.1039 12 19.8808ZM12 8.7885C11.0058 8.7885 10.1548 8.43451 9.44675 7.72651C8.73875 7.01851 8.38475 6.16734 8.38475 5.173C8.38475 4.17884 8.73875 3.32775 9.44675 2.61975C10.1548 1.91175 11.0058 1.55775 12 1.55775C12.9942 1.55775 13.8453 1.91175 14.5533 2.61975C15.2613 3.32775 15.6152 4.17884 15.6152 5.173C15.6152 6.16734 15.2613 7.01851 14.5533 7.72651C13.8453 8.43451 12.9942 8.7885 12 8.7885ZM12.0003 7.2885C12.5821 7.2885 13.0801 7.08134 13.4943 6.66701C13.9084 6.25267 14.1155 5.75459 14.1155 5.17275C14.1155 4.59092 13.9083 4.09292 13.494 3.67876C13.0797 3.26476 12.5816 3.05775 11.9998 3.05775C11.4179 3.05775 10.9199 3.26492 10.5058 3.67925C10.0916 4.09359 9.8845 4.59167 9.8845 5.17351C9.8845 5.75534 10.0917 6.25325 10.506 6.66725C10.9203 7.08142 11.4184 7.2885 12.0003 7.2885Z" fill="black"/>
</g>
</svg>
