<svg width="24" height="24" viewBox="0 0 24 24" fill="none" xmlns="http://www.w3.org/2000/svg">
<mask id="mask0_138_4887" style="mask-type:alpha" maskUnits="userSpaceOnUse" x="0" y="0" width="24" height="24">
<rect width="24" height="24" fill="#D9D9D9"/>
</mask>
<g mask="url(#mask0_138_4887)">
<path d="M11.25 21.5V20.5193C9.16672 20.3051 7.41288 19.4858 5.98855 18.0615C4.56422 16.6372 3.74497 14.8833 3.5308 12.8H2.55005C2.33755 12.8 2.15947 12.7281 2.0158 12.5843C1.87197 12.4404 1.80005 12.2623 1.80005 12.0498C1.80005 11.8371 1.87197 11.659 2.0158 11.5155C2.15947 11.3718 2.33755 11.3 2.55005 11.3H3.5308C3.74497 9.21667 4.56422 7.46284 5.98855 6.03851C7.41288 4.61417 9.16672 3.79492 11.25 3.58076V2.60001C11.25 2.38751 11.322 2.20942 11.4658 2.06576C11.6096 1.92192 11.7878 1.85001 12.0003 1.85001C12.213 1.85001 12.391 1.92192 12.5345 2.06576C12.6782 2.20942 12.75 2.38751 12.75 2.60001V3.58076C14.8334 3.79492 16.5872 4.61417 18.0115 6.03851C19.4359 7.46284 20.2551 9.21667 20.4693 11.3H21.45C21.6625 11.3 21.8406 11.3719 21.9843 11.5158C22.1281 11.6596 22.2 11.8378 22.2 12.0503C22.2 12.2629 22.1281 12.441 21.9843 12.5845C21.8406 12.7282 21.6625 12.8 21.45 12.8H20.4693C20.2551 14.8833 19.4359 16.6372 18.0115 18.0615C16.5872 19.4858 14.8334 20.3051 12.75 20.5193V21.5C12.75 21.7125 12.6781 21.8906 12.5343 22.0343C12.3905 22.1781 12.2123 22.25 11.9998 22.25C11.7871 22.25 11.609 22.1781 11.4655 22.0343C11.3219 21.8906 11.25 21.7125 11.25 21.5ZM12 19.05C13.9334 19.05 15.5834 18.3667 16.95 17C18.3167 15.6333 19 13.9833 19 12.05C19 10.1167 18.3167 8.46667 16.95 7.10001C15.5834 5.73334 13.9334 5.05001 12 5.05001C10.0667 5.05001 8.41672 5.73334 7.05005 7.10001C5.68338 8.46667 5.00005 10.1167 5.00005 12.05C5.00005 13.9833 5.68338 15.6333 7.05005 17C8.41672 18.3667 10.0667 19.05 12 19.05Z" fill="black"/>
</g>
</svg>
