<svg width="24" height="24" viewBox="0 0 24 24" fill="none" xmlns="http://www.w3.org/2000/svg">
<mask id="mask0_138_4932" style="mask-type:alpha" maskUnits="userSpaceOnUse" x="0" y="0" width="24" height="24">
<rect width="24" height="24" fill="#D9D9D9"/>
</mask>
<g mask="url(#mask0_138_4932)">
<path d="M19 8.13474C18.2372 8.13474 17.5882 7.86707 17.053 7.33174C16.5177 6.7964 16.25 6.1474 16.25 5.38474C16.25 4.6219 16.5177 3.97282 17.053 3.43748C17.5882 2.90232 18.2372 2.63474 19 2.63474C19.7628 2.63474 20.4118 2.90232 20.947 3.43748C21.4823 3.97282 21.75 4.6219 21.75 5.38474C21.75 6.1474 21.4823 6.7964 20.947 7.33174C20.4118 7.86707 19.7628 8.13474 19 8.13474ZM4.30775 19.5C3.80258 19.5 3.375 19.325 3.025 18.975C2.675 18.625 2.5 18.1974 2.5 17.6922V6.30773C2.5 5.80257 2.675 5.37498 3.025 5.02498C3.375 4.67498 3.80258 4.49998 4.30775 4.49998H13.4462C13.6807 4.49998 13.8775 4.58882 14.0365 4.76648C14.1955 4.94398 14.2667 5.15007 14.25 5.38474C14.25 5.4974 14.2552 5.60248 14.2655 5.69998C14.2757 5.79748 14.291 5.89748 14.3115 5.99998C14.3833 6.52048 14.5318 7.00832 14.7568 7.46348C14.9818 7.91865 15.2667 8.3244 15.6115 8.68073L12 11L5.0595 6.55948C4.85317 6.42748 4.64267 6.41598 4.428 6.52498C4.21317 6.63398 4.09617 6.80707 4.077 7.04424C4.05133 7.16857 4.06383 7.28682 4.1145 7.39899C4.16517 7.51115 4.2475 7.60248 4.3615 7.67298L11.5135 12.252C11.6673 12.3455 11.8295 12.3922 12 12.3922C12.1705 12.3922 12.3327 12.3455 12.4865 12.252L16.7943 9.49798C17.1161 9.70065 17.4619 9.8574 17.8318 9.96823C18.2016 10.0792 18.591 10.1347 19 10.1347C19.2358 10.1347 19.4733 10.1177 19.7125 10.0837C19.9517 10.0497 20.184 9.9904 20.4095 9.90573C20.6737 9.82107 20.9214 9.84899 21.1528 9.98949C21.3843 10.1298 21.5 10.3288 21.5 10.5865V17.6922C21.5 18.1974 21.325 18.625 20.975 18.975C20.625 19.325 20.1974 19.5 19.6923 19.5H4.30775Z" fill="black"/>
</g>
</svg>
