<svg width="24" height="24" viewBox="0 0 24 24" fill="none" xmlns="http://www.w3.org/2000/svg">
<mask id="mask0_138_4935" style="mask-type:alpha" maskUnits="userSpaceOnUse" x="0" y="0" width="24" height="24">
<rect width="24" height="24" fill="#D9D9D9"/>
</mask>
<g mask="url(#mask0_138_4935)">
<path d="M4.30775 19.5C3.80258 19.5 3.375 19.325 3.025 18.975C2.675 18.625 2.5 18.1974 2.5 17.6922V6.30773C2.5 5.80257 2.675 5.37498 3.025 5.02498C3.375 4.67498 3.80258 4.49998 4.30775 4.49998H13.4712C13.6841 4.49998 13.8638 4.5734 14.0105 4.72023C14.1573 4.86707 14.2276 5.0469 14.2212 5.25974C14.2147 5.46607 14.1397 5.64098 13.9962 5.78448C13.8526 5.92815 13.6776 5.99998 13.4712 5.99998H4V17.6922C4 17.7821 4.02883 17.8558 4.0865 17.9135C4.14417 17.9712 4.21792 18 4.30775 18H19.6923C19.7821 18 19.8558 17.9712 19.9135 17.9135C19.9712 17.8558 20 17.7821 20 17.6922V11C20 10.7872 20.0718 10.609 20.2155 10.4655C20.359 10.3218 20.5372 10.25 20.75 10.25C20.9628 10.25 21.141 10.3218 21.2845 10.4655C21.4282 10.609 21.5 10.7872 21.5 11V17.6922C21.5 18.1974 21.325 18.625 20.975 18.975C20.625 19.325 20.1974 19.5 19.6923 19.5H4.30775ZM12 11L15.2538 8.93273C15.4359 8.81473 15.6071 8.78365 15.7673 8.83949C15.9276 8.89515 16.0533 8.9954 16.1443 9.14023C16.2353 9.28523 16.2689 9.4404 16.2452 9.60573C16.2214 9.77107 16.1185 9.91273 15.9365 10.0307L12.477 12.252C12.3232 12.3455 12.1642 12.3938 12 12.397C11.8358 12.4003 11.6768 12.3552 11.523 12.2615L4 7.54798V5.99998L12 11ZM19 8.13474C18.2372 8.13474 17.5882 7.86707 17.053 7.33174C16.5177 6.7964 16.25 6.1474 16.25 5.38474C16.25 4.6219 16.5177 3.97282 17.053 3.43748C17.5882 2.90232 18.2372 2.63474 19 2.63474C19.7628 2.63474 20.4118 2.90232 20.947 3.43748C21.4823 3.97282 21.75 4.6219 21.75 5.38474C21.75 6.1474 21.4823 6.7964 20.947 7.33174C20.4118 7.86707 19.7628 8.13474 19 8.13474Z" fill="black"/>
</g>
</svg>
