<svg width="24" height="24" viewBox="0 0 24 24" fill="none" xmlns="http://www.w3.org/2000/svg">
<mask id="mask0_138_4923" style="mask-type:alpha" maskUnits="userSpaceOnUse" x="0" y="0" width="24" height="24">
<rect width="24" height="24" fill="#D9D9D9"/>
</mask>
<g mask="url(#mask0_138_4923)">
<path d="M6.0385 17.5L4.0365 19.5017C3.752 19.7864 3.42475 19.8509 3.05475 19.6952C2.68492 19.5394 2.5 19.2589 2.5 18.8537V4.30774C2.5 3.80258 2.675 3.37499 3.025 3.02499C3.375 2.67499 3.80258 2.49999 4.30775 2.49999H13.4808C13.6936 2.49999 13.8734 2.57499 14.0203 2.72499C14.1671 2.87499 14.2373 3.05641 14.2308 3.26924C14.2244 3.47558 14.1494 3.64899 14.0057 3.78949C13.8622 3.92983 13.6873 3.99999 13.4808 3.99999H4.30775C4.23075 3.99999 4.16025 4.03208 4.09625 4.09624C4.03208 4.16024 4 4.23074 4 4.30774V17.3847L5.4 16H19.6923C19.7693 16 19.8398 15.9679 19.9038 15.9037C19.9679 15.8397 20 15.7692 20 15.6922V8.97124C20 8.75841 20.0718 8.58016 20.2155 8.4365C20.359 8.293 20.5372 8.22124 20.75 8.22124C20.9628 8.22124 21.141 8.293 21.2845 8.4365C21.4282 8.58016 21.5 8.75841 21.5 8.97124V15.6922C21.5 16.1974 21.325 16.625 20.975 16.975C20.625 17.325 20.1974 17.5 19.6923 17.5H6.0385ZM19 6.23074C18.2372 6.23074 17.5882 5.96316 17.053 5.42799C16.5177 4.89266 16.25 4.24358 16.25 3.48074C16.25 2.71791 16.5177 2.06891 17.053 1.53374C17.5882 0.99841 18.2372 0.730743 19 0.730743C19.7628 0.730743 20.4118 0.99841 20.947 1.53374C21.4823 2.06891 21.75 2.71791 21.75 3.48074C21.75 4.24358 21.4823 4.89266 20.947 5.42799C20.4118 5.96316 19.7628 6.23074 19 6.23074ZM4 4.30774V16.6922V3.99999V4.30774Z" fill="black"/>
</g>
</svg>
