<svg width="24" height="24" viewBox="0 0 24 24" fill="none" xmlns="http://www.w3.org/2000/svg">
<mask id="mask0_138_4929" style="mask-type:alpha" maskUnits="userSpaceOnUse" x="0" y="0" width="24" height="24">
<rect width="24" height="24" fill="#D9D9D9"/>
</mask>
<g mask="url(#mask0_138_4929)">
<path d="M7 13.75H13C13.2125 13.75 13.3906 13.6781 13.5343 13.5342C13.6781 13.3904 13.75 13.2122 13.75 12.9997C13.75 12.7871 13.6781 12.609 13.5343 12.4655C13.3906 12.3218 13.2125 12.25 13 12.25H7C6.7875 12.25 6.60942 12.3219 6.46575 12.4657C6.32192 12.6096 6.25 12.7877 6.25 13.0002C6.25 13.2129 6.32192 13.391 6.46575 13.5345C6.60942 13.6782 6.7875 13.75 7 13.75ZM7 10.75H17C17.2125 10.75 17.3906 10.6781 17.5343 10.5342C17.6781 10.3904 17.75 10.2122 17.75 9.99974C17.75 9.78708 17.6781 9.60899 17.5343 9.46549C17.3906 9.32183 17.2125 9.24999 17 9.24999H7C6.7875 9.24999 6.60942 9.32191 6.46575 9.46574C6.32192 9.60958 6.25 9.78775 6.25 10.0002C6.25 10.2129 6.32192 10.391 6.46575 10.5345C6.60942 10.6782 6.7875 10.75 7 10.75ZM7 7.74999H15.5C15.7125 7.74999 15.8907 7.67808 16.0345 7.53424C16.1782 7.39041 16.25 7.21224 16.25 6.99974C16.25 6.78708 16.1782 6.60899 16.0345 6.46549C15.8907 6.32183 15.7125 6.24999 15.5 6.24999H7C6.7875 6.24999 6.60942 6.32191 6.46575 6.46574C6.32192 6.60958 6.25 6.78774 6.25 7.00024C6.25 7.21291 6.32192 7.39099 6.46575 7.53449C6.60942 7.67816 6.7875 7.74999 7 7.74999ZM6.0385 17.5L4.0365 19.5017C3.752 19.7864 3.42475 19.8504 3.05475 19.6937C2.68492 19.5369 2.5 19.2569 2.5 18.8537V4.30774C2.5 3.80258 2.675 3.37499 3.025 3.02499C3.375 2.67499 3.80258 2.49999 4.30775 2.49999H13.4808C13.6961 2.49999 13.8765 2.57499 14.022 2.72499C14.1677 2.87499 14.2373 3.05641 14.2308 3.26924C14.2244 3.47558 14.1494 3.64899 14.0057 3.78949C13.8622 3.92983 13.6873 3.99999 13.4808 3.99999H4.30775C4.23075 3.99999 4.16025 4.03208 4.09625 4.09624C4.03208 4.16024 4 4.23074 4 4.30774V17.3847L5.4 16H19.6923C19.7693 16 19.8398 15.9679 19.9038 15.9037C19.9679 15.8397 20 15.7692 20 15.6922V8.97124C20 8.75874 20.0719 8.58058 20.2157 8.43674C20.3596 8.29308 20.5378 8.22124 20.7502 8.22124C20.9629 8.22124 21.141 8.29308 21.2845 8.43674C21.4282 8.58058 21.5 8.75874 21.5 8.97124V15.6922C21.5 16.1974 21.325 16.625 20.975 16.975C20.625 17.325 20.1974 17.5 19.6923 17.5H6.0385ZM19.0012 6.23074C18.2376 6.23074 17.5882 5.96349 17.053 5.42899C16.5177 4.89449 16.25 4.24549 16.25 3.48199C16.25 2.71833 16.5173 2.06891 17.0518 1.53374C17.5863 0.99841 18.2353 0.730743 18.9988 0.730743C19.7624 0.730743 20.4118 0.997994 20.947 1.53249C21.4823 2.06699 21.75 2.71608 21.75 3.47974C21.75 4.24324 21.4827 4.89266 20.9482 5.42799C20.4137 5.96316 19.7647 6.23074 19.0012 6.23074ZM4 4.30774V16.6922V3.99999V4.30774Z" fill="black"/>
</g>
</svg>
