<svg width="24" height="24" viewBox="0 0 24 24" fill="none" xmlns="http://www.w3.org/2000/svg">
<mask id="mask0_138_4920" style="mask-type:alpha" maskUnits="userSpaceOnUse" x="0" y="0" width="24" height="24">
<rect width="24" height="24" fill="#D9D9D9"/>
</mask>
<g mask="url(#mask0_138_4920)">
<path d="M19.0012 6.23074C18.2376 6.23074 17.5882 5.96349 17.053 5.42899C16.5177 4.89449 16.25 4.24549 16.25 3.48199C16.25 2.71833 16.5173 2.06891 17.0518 1.53374C17.5863 0.99841 18.2353 0.730743 18.9988 0.730743C19.7624 0.730743 20.4118 0.997994 20.947 1.53249C21.4823 2.06699 21.75 2.71608 21.75 3.47974C21.75 4.24324 21.4827 4.89266 20.9482 5.42799C20.4137 5.96316 19.7647 6.23074 19.0012 6.23074ZM6.0385 17.5L4.0365 19.5017C3.752 19.7864 3.42475 19.8504 3.05475 19.6937C2.68492 19.5369 2.5 19.2569 2.5 18.8537V4.30774C2.5 3.80258 2.675 3.37499 3.025 3.02499C3.375 2.67499 3.80258 2.49999 4.30775 2.49999H13.4655C13.7017 2.49999 13.8973 2.58883 14.0523 2.76649C14.2073 2.94399 14.2732 3.15008 14.25 3.38474C14.25 4.10908 14.3949 4.78208 14.6848 5.40374C14.9744 6.02558 15.3724 6.56533 15.8788 7.02299C16.2993 7.39233 16.7772 7.68591 17.3125 7.90375C17.8478 8.12175 18.4103 8.23074 19 8.23074C19.2382 8.23074 19.4764 8.21316 19.7148 8.17799C19.9529 8.14283 20.1845 8.08416 20.4095 8.002C20.6737 7.91733 20.9214 7.94516 21.1528 8.08549C21.3843 8.22599 21.5 8.42641 21.5 8.68674V15.692C21.5 16.1973 21.325 16.625 20.975 16.975C20.625 17.325 20.1974 17.5 19.6923 17.5H6.0385Z" fill="black"/>
</g>
</svg>
