<svg width="24" height="24" viewBox="0 0 24 24" fill="none" xmlns="http://www.w3.org/2000/svg">
<mask id="mask0_138_4944" style="mask-type:alpha" maskUnits="userSpaceOnUse" x="0" y="0" width="24" height="24">
<rect width="24" height="24" fill="#D9D9D9"/>
</mask>
<g mask="url(#mask0_138_4944)">
<path d="M8.97675 13.93V10.07C8.97675 9.76017 9.08156 9.50058 9.29117 9.29117C9.50058 9.08156 9.76017 8.97675 10.07 8.97675H13.93C14.2398 8.97675 14.4994 9.08156 14.7088 9.29117C14.9184 9.50058 15.0232 9.76017 15.0232 10.07V13.93C15.0232 14.2398 14.9184 14.4994 14.7088 14.7088C14.4994 14.9184 14.2398 15.0232 13.93 15.0232H10.07C9.76017 15.0232 9.50058 14.9184 9.29117 14.7088C9.08156 14.4994 8.97675 14.2398 8.97675 13.93ZM8.67443 21.093V19.8604H6.32566C5.71477 19.8604 5.19769 19.6488 4.77444 19.2256C4.35118 18.8023 4.13955 18.2852 4.13955 17.6743V15.3256H2.90697C2.65 15.3256 2.43464 15.2386 2.26091 15.0647C2.08697 14.8907 2 14.6753 2 14.4183C2 14.1611 2.08697 13.9458 2.26091 13.7722C2.43464 13.5985 2.65 13.5116 2.90697 13.5116H4.13955V10.4884H2.90697C2.65 10.4884 2.43464 10.4014 2.26091 10.2275C2.08697 10.0535 2 9.83808 2 9.5811C2 9.32392 2.08697 9.10856 2.26091 8.93503C2.43464 8.76129 2.65 8.67443 2.90697 8.67443H4.13955V6.32566C4.13955 5.71477 4.35118 5.19769 4.77444 4.77444C5.19769 4.35118 5.71477 4.13955 6.32566 4.13955H8.67443V2.90697C8.67443 2.65 8.76139 2.43464 8.93533 2.26091C9.10927 2.08697 9.32473 2 9.5817 2C9.83888 2 10.0542 2.08697 10.2278 2.26091C10.4015 2.43464 10.4884 2.65 10.4884 2.90697V4.13955H13.5116V2.90697C13.5116 2.65 13.5986 2.43464 13.7725 2.26091C13.9465 2.08697 14.1619 2 14.4189 2C14.6761 2 14.8914 2.08697 15.065 2.26091C15.2387 2.43464 15.3256 2.65 15.3256 2.90697V4.13955H17.6743C18.2852 4.13955 18.8023 4.35118 19.2256 4.77444C19.6488 5.19769 19.8604 5.71477 19.8604 6.32566V8.67443H21.093C21.35 8.67443 21.5654 8.7614 21.7391 8.93533C21.913 9.10927 22 9.32473 22 9.5817C22 9.83888 21.913 10.0542 21.7391 10.2278C21.5654 10.4015 21.35 10.4884 21.093 10.4884H19.8604V13.5116H21.093C21.35 13.5116 21.5654 13.5986 21.7391 13.7725C21.913 13.9465 22 14.1619 22 14.4189C22 14.6761 21.913 14.8914 21.7391 15.065C21.5654 15.2387 21.35 15.3256 21.093 15.3256H19.8604V17.6743C19.8604 18.2852 19.6488 18.8023 19.2256 19.2256C18.8023 19.6488 18.2852 19.8604 17.6743 19.8604H15.3256V21.093C15.3256 21.35 15.2386 21.5654 15.0647 21.7391C14.8907 21.913 14.6753 22 14.4183 22C14.1611 22 13.9458 21.913 13.7722 21.7391C13.5985 21.5654 13.5116 21.35 13.5116 21.093V19.8604H10.4884V21.093C10.4884 21.35 10.4014 21.5654 10.2275 21.7391C10.0535 21.913 9.83807 22 9.5811 22C9.32392 22 9.10856 21.913 8.93503 21.7391C8.76129 21.5654 8.67443 21.35 8.67443 21.093ZM17.6743 18.0465C17.7675 18.0465 17.8527 18.0077 17.9301 17.9301C18.0077 17.8527 18.0465 17.7675 18.0465 17.6743V6.32566C18.0465 6.23255 18.0077 6.14729 17.9301 6.0699C17.8527 5.9923 17.7675 5.9535 17.6743 5.9535H6.32566C6.23255 5.9535 6.14729 5.9923 6.0699 6.0699C5.9923 6.14729 5.9535 6.23255 5.9535 6.32566V17.6743C5.9535 17.7675 5.9923 17.8527 6.0699 17.9301C6.14729 18.0077 6.23255 18.0465 6.32566 18.0465H17.6743Z" fill="black"/>
</g>
</svg>
