<svg width="24" height="24" viewBox="0 0 24 24" fill="none" xmlns="http://www.w3.org/2000/svg">
<mask id="mask0_138_4941" style="mask-type:alpha" maskUnits="userSpaceOnUse" x="0" y="0" width="24" height="24">
<rect width="24" height="24" fill="#D9D9D9"/>
</mask>
<g mask="url(#mask0_138_4941)">
<path d="M6.5 16.0192C7.32817 16.0192 8.13392 16.1132 8.91725 16.301C9.70058 16.4888 10.4782 16.7834 11.25 17.1847V7.35374C10.5475 6.89608 9.78725 6.55283 8.96925 6.32399C8.15125 6.09516 7.32817 5.98074 6.5 5.98074C5.9 5.98074 5.33942 6.02783 4.81825 6.12199C4.29708 6.21633 3.7615 6.37049 3.2115 6.58449C3.13467 6.61016 3.08017 6.64708 3.048 6.69524C3.016 6.74324 3 6.79608 3 6.85374V16.3115C3 16.4013 3.03208 16.4671 3.09625 16.5087C3.16025 16.5504 3.23075 16.5552 3.30775 16.523C3.78208 16.3615 4.28267 16.2372 4.8095 16.15C5.3365 16.0628 5.9 16.0192 6.5 16.0192ZM12.75 17.1847C13.5218 16.7834 14.2994 16.4888 15.0828 16.301C15.8661 16.1132 16.6718 16.0192 17.5 16.0192C18.1 16.0192 18.6635 16.0628 19.1905 16.15C19.7173 16.2372 20.2179 16.3615 20.6923 16.523C20.7693 16.5552 20.8398 16.5504 20.9038 16.5087C20.9679 16.4671 21 16.4013 21 16.3115V6.85374C21 6.79608 20.984 6.74483 20.952 6.69999C20.9198 6.65516 20.8653 6.61666 20.7885 6.58449C20.2385 6.37049 19.7029 6.21633 19.1818 6.12199C18.6606 6.02783 18.1 5.98074 17.5 5.98074C16.6718 5.98074 15.8487 6.09516 15.0307 6.32399C14.2127 6.55283 13.4525 6.89608 12.75 7.35374V17.1847ZM12 18.9652C11.8052 18.9652 11.6228 18.9409 11.453 18.8922C11.283 18.8436 11.1224 18.7788 10.9713 18.698C10.2828 18.3083 9.5625 18.0144 8.8105 17.8162C8.05867 17.6182 7.2885 17.5192 6.5 17.5192C5.88983 17.5192 5.2905 17.5868 4.702 17.722C4.1135 17.8573 3.54617 18.0564 3 18.3192C2.64367 18.4832 2.30458 18.4572 1.98275 18.2412C1.66092 18.0252 1.5 17.7192 1.5 17.323V6.46549C1.5 6.24999 1.5555 6.04774 1.6665 5.85874C1.77733 5.66958 1.93725 5.53333 2.14625 5.44999C2.82308 5.12049 3.5285 4.87658 4.2625 4.71824C4.9965 4.55991 5.74233 4.48074 6.5 4.48074C7.473 4.48074 8.42367 4.61374 9.352 4.87974C10.2802 5.14591 11.1628 5.53858 12 6.05774C12.8372 5.53858 13.7198 5.14591 14.648 4.87974C15.5763 4.61374 16.527 4.48074 17.5 4.48074C18.2577 4.48074 19.0035 4.55991 19.7375 4.71824C20.4715 4.87658 21.1769 5.12049 21.8538 5.44999C22.0627 5.53333 22.2227 5.66958 22.3335 5.85874C22.4445 6.04774 22.5 6.24999 22.5 6.46549V17.323C22.5 17.7192 22.3327 18.0221 21.998 18.2317C21.6633 18.4412 21.3114 18.464 20.9423 18.3C20.4026 18.0435 19.8433 17.8492 19.2645 17.7172C18.6857 17.5852 18.0975 17.5192 17.5 17.5192C16.7115 17.5192 15.9413 17.6182 15.1895 17.8162C14.4375 18.0144 13.7173 18.3083 13.0288 18.698C12.8776 18.7788 12.717 18.8436 12.547 18.8922C12.3772 18.9409 12.1948 18.9652 12 18.9652ZM13.9423 8.86149C13.9423 8.74999 13.982 8.63591 14.0615 8.51924C14.141 8.40258 14.2314 8.32241 14.3328 8.27874C14.8289 8.08008 15.3395 7.92949 15.8645 7.82699C16.3895 7.72433 16.9347 7.67299 17.5 7.67299C17.827 7.67299 18.1433 7.69224 18.449 7.73074C18.7548 7.76924 19.0628 7.82183 19.373 7.88849C19.491 7.91533 19.5929 7.97941 19.6788 8.08074C19.7648 8.18208 19.8078 8.29999 19.8078 8.43449C19.8078 8.66016 19.7369 8.82524 19.5953 8.92974C19.4536 9.03424 19.2699 9.05958 19.0443 9.00574C18.8044 8.95574 18.5553 8.91983 18.297 8.89799C18.0387 8.87616 17.773 8.86524 17.5 8.86524C17.0153 8.86524 16.5407 8.91174 16.076 9.00474C15.6112 9.09774 15.1679 9.22374 14.7462 9.38274C14.5102 9.47374 14.3173 9.46858 14.1673 9.36724C14.0173 9.26608 13.9423 9.09749 13.9423 8.86149ZM13.9423 14.323C13.9423 14.2115 13.982 14.0958 14.0615 13.976C14.141 13.8562 14.2314 13.7744 14.3328 13.7307C14.8161 13.5321 15.3267 13.3831 15.8645 13.2837C16.4023 13.1844 16.9475 13.1347 17.5 13.1347C17.827 13.1347 18.1433 13.1539 18.449 13.1922C18.7548 13.2307 19.0628 13.2833 19.373 13.35C19.491 13.377 19.5929 13.4411 19.6788 13.5422C19.7648 13.6436 19.8078 13.7616 19.8078 13.8962C19.8078 14.1217 19.7369 14.2867 19.5953 14.3912C19.4536 14.4957 19.2699 14.5211 19.0443 14.4672C18.8044 14.4172 18.5553 14.3813 18.297 14.3595C18.0387 14.3378 17.773 14.327 17.5 14.327C17.0218 14.327 16.5519 14.3725 16.0903 14.4635C15.6287 14.5545 15.1871 14.6827 14.7653 14.848C14.5294 14.9455 14.3333 14.943 14.177 14.8405C14.0205 14.7378 13.9423 14.5653 13.9423 14.323ZM13.9423 11.602C13.9423 11.4905 13.982 11.3764 14.0615 11.2597C14.141 11.1431 14.2314 11.0629 14.3328 11.0192C14.8289 10.8206 15.3395 10.6699 15.8645 10.5672C16.3895 10.4647 16.9347 10.4135 17.5 10.4135C17.827 10.4135 18.1433 10.4327 18.449 10.4712C18.7548 10.5096 19.0628 10.5621 19.373 10.6287C19.491 10.6557 19.5929 10.7199 19.6788 10.8212C19.7648 10.9224 19.8078 11.0403 19.8078 11.175C19.8078 11.4007 19.7369 11.5657 19.5953 11.6702C19.4536 11.7747 19.2699 11.8001 19.0443 11.7462C18.8044 11.6962 18.5553 11.6603 18.297 11.6385C18.0387 11.6167 17.773 11.6057 17.5 11.6057C17.0153 11.6057 16.5407 11.6522 16.076 11.7452C15.6112 11.8381 15.1679 11.964 14.7462 12.123C14.5102 12.214 14.3173 12.2089 14.1673 12.1077C14.0173 12.0064 13.9423 11.8378 13.9423 11.602Z" fill="black"/>
</g>
</svg>
