<svg width="24" height="24" viewBox="0 0 24 24" fill="none" xmlns="http://www.w3.org/2000/svg">
<mask id="mask0_138_4953" style="mask-type:alpha" maskUnits="userSpaceOnUse" x="0" y="0" width="24" height="24">
<rect width="24" height="24" fill="#D9D9D9"/>
</mask>
<g mask="url(#mask0_138_4953)">
<path d="M14.9999 21.5578C14.7871 21.5578 14.6089 21.4859 14.4654 21.3423C14.3217 21.1988 14.2499 21.0206 14.2499 20.8078V19.4538C13.8474 19.3999 13.4656 19.3057 13.1046 19.171C12.7438 19.0365 12.4101 18.8481 12.1036 18.6058L10.9691 19.75C10.814 19.8885 10.6358 19.9619 10.4346 19.9703C10.2333 19.9786 10.0551 19.9052 9.89989 19.75C9.75122 19.6013 9.67689 19.4248 9.67689 19.2203C9.67689 19.0158 9.75122 18.8392 9.89989 18.6905L11.0596 17.5213C10.9968 17.4251 10.9356 17.3279 10.8759 17.2298C10.8162 17.1318 10.7582 17.0314 10.7019 16.9288L9.95964 15.4693C9.94031 15.4244 9.91947 15.3843 9.89714 15.349C9.87464 15.3137 9.84739 15.2768 9.81539 15.2385L8.37864 16.675C8.22364 16.8135 8.04647 16.8885 7.84714 16.9C7.64764 16.9115 7.47039 16.8397 7.31539 16.6845C7.16656 16.5358 7.09214 16.3603 7.09214 16.1578C7.09214 15.9551 7.16656 15.7794 7.31539 15.6308L8.76139 14.1693C8.72939 14.1373 8.69414 14.11 8.65564 14.0875C8.61714 14.065 8.57547 14.0442 8.53064 14.025L7.07114 13.298C6.97497 13.2518 6.88714 13.2063 6.80764 13.1615C6.72814 13.1167 6.64347 13.0628 6.55364 13L5.51914 14.0345C5.36397 14.173 5.18581 14.2464 4.98464 14.2548C4.78331 14.2631 4.60506 14.1897 4.44989 14.0345C4.30122 13.8858 4.22689 13.7103 4.22689 13.5078C4.22689 13.3051 4.30122 13.1294 4.44989 12.9808L5.45964 11.9713C5.20697 11.6481 5.00506 11.2993 4.85389 10.925C4.70256 10.5507 4.59997 10.159 4.54614 9.75001H3.19214C2.97931 9.75001 2.80114 9.67818 2.65764 9.53451C2.51397 9.39101 2.44214 9.21284 2.44214 9.00001C2.44214 8.78718 2.51397 8.60901 2.65764 8.46551C2.80114 8.32184 2.97931 8.25001 3.19214 8.25001H4.58639C4.65689 7.90768 4.75689 7.58843 4.88639 7.29226C5.01589 6.99609 5.18197 6.71151 5.38464 6.43851L4.36539 5.41926C4.21656 5.27059 4.14214 5.09493 4.14214 4.89226C4.14214 4.68976 4.21656 4.51418 4.36539 4.36551C4.51406 4.21668 4.68964 4.14226 4.89214 4.14226C5.09481 4.14226 5.27047 4.21668 5.41914 4.36551L6.42864 5.38476C6.70181 5.18209 6.98806 5.01601 7.28739 4.88651C7.58672 4.75701 7.90756 4.65701 8.24989 4.58651V3.19226C8.24989 2.97943 8.32172 2.80126 8.46539 2.65776C8.60889 2.51409 8.78706 2.44226 8.99989 2.44226C9.21272 2.44226 9.39089 2.51409 9.53439 2.65776C9.67806 2.80126 9.74989 2.97943 9.74989 3.19226V4.54626C10.1691 4.60009 10.5675 4.70518 10.9451 4.86151C11.3226 5.01801 11.673 5.22576 11.9961 5.48476L13.0154 4.46551C13.1641 4.31668 13.3406 4.24226 13.5451 4.24226C13.7496 4.24226 13.9262 4.31668 14.0749 4.46551C14.2236 4.61418 14.2979 4.78976 14.2979 4.99226C14.2979 5.19493 14.2236 5.37059 14.0749 5.51926L13.0151 6.57876C13.0678 6.65826 13.1181 6.73618 13.1661 6.81251C13.2143 6.88884 13.2582 6.97509 13.2979 7.07126L14.0094 8.47501C14.0287 8.51351 14.0496 8.55201 14.0719 8.59051C14.0944 8.62884 14.1185 8.66409 14.1441 8.69626L15.5154 7.32501C15.6641 7.17634 15.8406 7.10201 16.0451 7.10201C16.2496 7.10201 16.4262 7.17634 16.5749 7.32501C16.7236 7.47368 16.7979 7.65026 16.7979 7.85476C16.7979 8.05926 16.7236 8.23584 16.5749 8.38451L15.1729 9.78076C15.2114 9.81276 15.2515 9.84159 15.2931 9.86726C15.3348 9.89293 15.3813 9.91859 15.4326 9.94426L16.9286 10.702C17.0415 10.7648 17.1553 10.8286 17.2701 10.8933C17.3848 10.9581 17.4902 11.0303 17.5864 11.1098L18.7306 9.97501C18.8793 9.82634 19.055 9.75201 19.2576 9.75201C19.4601 9.75201 19.6357 9.82634 19.7844 9.97501C19.9332 10.1237 20.0076 10.3003 20.0076 10.5048C20.0076 10.7093 19.9332 10.8858 19.7844 11.0345L18.6401 12.1635C18.8658 12.4698 19.0444 12.7978 19.1759 13.1473C19.3072 13.4966 19.3998 13.8642 19.4536 14.25H20.8076C21.0205 14.25 21.1986 14.3218 21.3421 14.4655C21.4858 14.609 21.5576 14.7872 21.5576 15C21.5576 15.2128 21.4858 15.391 21.3421 15.5345C21.1986 15.6782 21.0205 15.75 20.8076 15.75H19.4134C19.3429 16.0923 19.2445 16.409 19.1181 16.7C18.9918 16.991 18.8274 17.2731 18.6249 17.5463L19.6094 18.5405C19.7582 18.6892 19.8326 18.8658 19.8326 19.0703C19.8326 19.2748 19.7582 19.4513 19.6094 19.6C19.4544 19.7385 19.2762 19.8119 19.0749 19.8203C18.8736 19.8286 18.6954 19.7552 18.5404 19.6L17.5711 18.6153C17.298 18.8179 17.0117 18.984 16.7124 19.1135C16.4131 19.243 16.0922 19.343 15.7499 19.4135V20.8078C15.7499 21.0206 15.6781 21.1988 15.5344 21.3423C15.3909 21.4859 15.2127 21.5578 14.9999 21.5578ZM14.8499 18C15.8166 18 16.6124 17.6333 17.2374 16.9C17.8624 16.1667 18.0999 15.3167 17.9499 14.35C17.8666 13.85 17.6791 13.4 17.3874 13C17.0957 12.6 16.7166 12.2833 16.2499 12.05L14.5999 11.2C14.2166 11 13.8707 10.7458 13.5624 10.4375C13.2541 10.1292 12.9999 9.78334 12.7999 9.40001L11.9499 7.75001C11.6832 7.21668 11.2999 6.79168 10.7999 6.47501C10.2999 6.15834 9.74989 6.00001 9.14989 6.00001C8.18322 6.00001 7.38739 6.36668 6.76239 7.10001C6.13739 7.83334 5.89989 8.68334 6.04989 9.65001C6.13322 10.15 6.32072 10.6 6.61239 11C6.90406 11.4 7.28322 11.7167 7.74989 11.95L9.39989 12.8C9.78322 13 10.1291 13.2542 10.4374 13.5625C10.7457 13.8708 10.9999 14.2167 11.1999 14.6L12.0499 16.25C12.3166 16.7833 12.6999 17.2083 13.1999 17.525C13.6999 17.8417 14.2499 18 14.8499 18ZM9.49989 10.3463C9.87172 10.3463 10.1874 10.2164 10.4469 9.95676C10.7066 9.69709 10.8396 9.38134 10.8461 9.00951C10.8461 8.63784 10.7147 8.32059 10.4519 8.05776C10.1891 7.79493 9.87172 7.66026 9.49989 7.65376C9.12806 7.65376 8.81239 7.78518 8.55289 8.04801C8.29322 8.31084 8.16014 8.62818 8.15364 9.00001C8.16014 9.37184 8.29322 9.68751 8.55289 9.94701C8.81239 10.2067 9.12806 10.3398 9.49989 10.3463ZM14.4999 16.5193C14.7857 16.5193 15.0271 16.4208 15.2239 16.224C15.4207 16.0272 15.5191 15.7858 15.5191 15.5C15.5191 15.2142 15.4207 14.9728 15.2239 14.776C15.0271 14.5792 14.7857 14.4808 14.4999 14.4808C14.2141 14.4808 13.9727 14.5792 13.7759 14.776C13.5791 14.9728 13.4806 15.2142 13.4806 15.5C13.4806 15.7858 13.5791 16.0272 13.7759 16.224C13.9727 16.4208 14.2141 16.5193 14.4999 16.5193Z" fill="black"/>
</g>
</svg>
