<svg width="24" height="24" viewBox="0 0 24 24" fill="none" xmlns="http://www.w3.org/2000/svg">
<mask id="mask0_138_4962" style="mask-type:alpha" maskUnits="userSpaceOnUse" x="0" y="0" width="24" height="24">
<rect width="24" height="24" fill="#D9D9D9"/>
</mask>
<g mask="url(#mask0_138_4962)">
<path d="M12.0001 17.4615L6.30008 19.8943C6.10275 19.9711 5.91783 19.9887 5.74533 19.947C5.57283 19.9053 5.42633 19.8243 5.30583 19.7038C5.18533 19.5833 5.10425 19.4334 5.06258 19.2543C5.02091 19.0751 5.04175 18.8884 5.12508 18.6943L11.1713 5.08851C11.246 4.90785 11.3617 4.77227 11.5183 4.68177C11.6752 4.59143 11.8357 4.54626 11.9998 4.54626C12.1642 4.54626 12.3247 4.59143 12.4816 4.68177C12.6384 4.77227 12.7542 4.90785 12.8288 5.08851L18.8751 18.6943C18.9584 18.8884 18.9792 19.0751 18.9376 19.2543C18.8959 19.4334 18.8148 19.5833 18.6943 19.7038C18.5738 19.8243 18.4273 19.9053 18.2548 19.947C18.0823 19.9887 17.8974 19.9711 17.7001 19.8943L12.0001 17.4615Z" fill="black"/>
</g>
</svg>
