<svg width="24" height="24" viewBox="0 0 24 24" fill="none" xmlns="http://www.w3.org/2000/svg">
<mask id="mask0_138_4968" style="mask-type:alpha" maskUnits="userSpaceOnUse" x="0" y="0" width="24" height="24">
<rect width="24" height="24" fill="#D9D9D9"/>
</mask>
<g mask="url(#mask0_138_4968)">
<path d="M4.35006 10.5C5.46673 9.7 6.67506 9.08333 7.97506 8.65C9.27506 8.21667 10.6167 8 12.0001 8C13.3834 8 14.7251 8.21667 16.0251 8.65C17.3251 9.08333 18.5334 9.7 19.6501 10.5L21.1001 9.05C19.7834 8.05 18.3501 7.29167 16.8001 6.775C15.2501 6.25833 13.6501 6 12.0001 6C10.3501 6 8.75006 6.25833 7.20006 6.775C5.65006 7.29167 4.21673 8.05 2.90006 9.05L4.35006 10.5ZM10.9213 19.2095L1.89056 10.1788C1.7354 10.0238 1.62065 9.85117 1.54631 9.661C1.47198 9.47083 1.43481 9.28067 1.43481 9.0905C1.43481 8.8725 1.48031 8.66417 1.57131 8.4655C1.66231 8.26667 1.79881 8.09033 1.98081 7.9365C3.36681 6.8045 4.93898 5.94875 6.69731 5.36925C8.45548 4.78975 10.2231 4.5 12.0001 4.5C13.7771 4.5 15.5446 4.78975 17.3028 5.36925C19.0611 5.94875 20.6333 6.8045 22.0193 7.9365C22.2013 8.09033 22.3378 8.26667 22.4288 8.4655C22.5198 8.66417 22.5653 8.8725 22.5653 9.0905C22.5653 9.28267 22.5281 9.47333 22.4538 9.6625C22.3795 9.85167 22.2647 10.0238 22.1096 10.1788L13.0788 19.2095C12.9238 19.3647 12.7533 19.4794 12.5673 19.5538C12.3815 19.6281 12.1924 19.6652 12.0001 19.6652C11.8077 19.6652 11.6186 19.6281 11.4328 19.5538C11.2468 19.4794 11.0763 19.3647 10.9213 19.2095Z" fill="black"/>
</g>
</svg>
