<svg width="24" height="24" viewBox="0 0 24 24" fill="none" xmlns="http://www.w3.org/2000/svg">
<mask id="mask0_138_5034" style="mask-type:alpha" maskUnits="userSpaceOnUse" x="0" y="0" width="24" height="24">
<rect width="24" height="24" fill="#D9D9D9"/>
</mask>
<g mask="url(#mask0_138_5034)">
<path d="M19.277 21.4L17.1693 19.3077H6.01929C5.59746 19.3077 5.23879 19.16 4.94329 18.8645C4.64779 18.5688 4.50004 18.2102 4.50004 17.7885V17.0845C4.50004 16.5948 4.63304 16.1413 4.89904 15.724C5.16504 15.3067 5.52054 14.9858 5.96554 14.7615C6.77954 14.359 7.59971 14.0442 8.42604 13.8172C9.25238 13.5904 10.0848 13.4411 10.9233 13.3692H11.0818C11.1363 13.3692 11.1892 13.3724 11.2405 13.3787L2.58479 4.72298C2.43596 4.57432 2.36254 4.39773 2.36454 4.19323C2.36638 3.98873 2.44488 3.8089 2.60004 3.65374C2.75521 3.49874 2.93346 3.42123 3.13479 3.42123C3.33596 3.42123 3.51413 3.49874 3.66929 3.65374L20.3463 20.3462C20.495 20.4949 20.5709 20.6689 20.574 20.8682C20.5772 21.0676 20.5013 21.2448 20.3463 21.4C20.1911 21.5552 20.0129 21.6327 19.8115 21.6327C19.6104 21.6327 19.4322 21.5552 19.277 21.4ZM6.00004 17.8077H15.6693L12.7173 14.8557C12.5878 14.8429 12.4683 14.8317 12.3588 14.822C12.2491 14.8125 12.1295 14.8077 12 14.8077C11.0859 14.8077 10.1817 14.917 9.28754 15.1355C8.39338 15.3542 7.51546 15.6757 6.65379 16.1C6.45262 16.209 6.29337 16.3497 6.17604 16.522C6.05871 16.6945 6.00004 16.882 6.00004 17.0845V17.8077ZM18.2463 14.8672C18.5436 15.0109 18.7795 15.2289 18.9538 15.5212C19.1281 15.8134 19.2205 16.1287 19.2308 16.4672L17.1693 14.4057C17.354 14.4776 17.536 14.5494 17.7155 14.6212C17.8949 14.6931 18.0718 14.7751 18.2463 14.8672ZM13.9403 11.1095L12.8405 10.0097C13.1917 9.8469 13.4728 9.60107 13.6838 9.27224C13.8946 8.94324 14 8.58323 14 8.19223C14 7.64223 13.8042 7.1714 13.4125 6.77973C13.0209 6.38807 12.55 6.19223 12 6.19223C11.609 6.19223 11.2491 6.29773 10.9203 6.50873C10.5915 6.71957 10.3456 7.00065 10.1828 7.35199L9.08279 6.25199C9.41479 5.75582 9.83563 5.37182 10.3453 5.09998C10.855 4.82815 11.4065 4.69223 12 4.69223C12.9654 4.69223 13.79 5.03423 14.474 5.71823C15.158 6.40223 15.5 7.2269 15.5 8.19223C15.5 8.7859 15.3641 9.33748 15.0923 9.84698C14.8205 10.3567 14.4365 10.7775 13.9403 11.1095Z" fill="black"/>
</g>
</svg>
