<svg width="24" height="24" viewBox="0 0 24 24" fill="none" xmlns="http://www.w3.org/2000/svg">
<mask id="mask0_138_5088" style="mask-type:alpha" maskUnits="userSpaceOnUse" x="0" y="0" width="24" height="24">
<rect width="24" height="24" fill="#D9D9D9"/>
</mask>
<g mask="url(#mask0_138_5088)">
<path d="M12 21.5C10.8205 21.5 9.71542 21.2769 8.68475 20.8308C7.65392 20.3846 6.75517 19.7782 5.9885 19.0115C5.22183 18.2448 4.61542 17.3461 4.16925 16.3153C3.72308 15.2846 3.5 14.1795 3.5 13C3.5 12.7872 3.57183 12.609 3.7155 12.4655C3.859 12.3218 4.03717 12.25 4.25 12.25C4.46283 12.25 4.641 12.3218 4.7845 12.4655C4.92817 12.609 5 12.7872 5 13C5 14.95 5.67917 16.6042 7.0375 17.9625C8.39583 19.3208 10.05 20 12 20C13.95 20 15.6042 19.3208 16.9625 17.9625C18.3208 16.6042 19 14.95 19 13C19 11.05 18.3208 9.39585 16.9625 8.03751C15.6042 6.67918 13.95 6.00001 12 6.00001H11.7345L12.7963 7.06151C12.9449 7.21035 13.0183 7.38443 13.0163 7.58376C13.0144 7.7831 12.9411 7.96026 12.7963 8.11526C12.6411 8.27043 12.4628 8.3506 12.2615 8.35576C12.0603 8.36093 11.8822 8.28593 11.727 8.13076L9.479 5.87301C9.29817 5.69235 9.20775 5.48151 9.20775 5.24051C9.20775 4.99935 9.29817 4.78843 9.479 4.60776L11.7463 2.35001C11.8949 2.20135 12.0715 2.12793 12.276 2.12976C12.4805 2.13176 12.6603 2.21035 12.8155 2.36551C12.9603 2.52051 13.0353 2.6961 13.0405 2.89226C13.0455 3.08843 12.9705 3.2641 12.8155 3.41926L11.7345 4.50001H12C13.1795 4.50001 14.2846 4.7231 15.3152 5.16926C16.3461 5.61543 17.2448 6.22185 18.0115 6.98851C18.7782 7.75518 19.3846 8.65393 19.8307 9.68476C20.2769 10.7154 20.5 11.8205 20.5 13C20.5 14.1795 20.2769 15.2846 19.8307 16.3153C19.3846 17.3461 18.7782 18.2448 18.0115 19.0115C17.2448 19.7782 16.3461 20.3846 15.3152 20.8308C14.2846 21.2769 13.1795 21.5 12 21.5Z" fill="black"/>
</g>
</svg>
