<svg width="24" height="24" viewBox="0 0 24 24" fill="none" xmlns="http://www.w3.org/2000/svg">
<mask id="mask0_138_5223" style="mask-type:alpha" maskUnits="userSpaceOnUse" x="0" y="0" width="24" height="24">
<rect width="24" height="24" fill="#D9D9D9"/>
</mask>
<g mask="url(#mask0_138_5223)">
<path d="M12 21.371C11.8962 21.371 11.7942 21.3627 11.6942 21.346C11.5942 21.3293 11.4974 21.3043 11.4037 21.271C9.29492 20.521 7.61708 19.1913 6.37025 17.2818C5.12342 15.3721 4.5 13.3115 4.5 11.1V6.59625C4.5 6.21642 4.60925 5.8745 4.82775 5.5705C5.04608 5.26667 5.3285 5.04642 5.675 4.90975L11.3672 2.78475C11.5814 2.70775 11.7923 2.66925 12 2.66925C12.2077 2.66925 12.4186 2.70775 12.6328 2.78475L18.325 4.90975C18.6715 5.04642 18.9539 5.26667 19.1723 5.5705C19.3908 5.8745 19.5 6.21642 19.5 6.59625V11.1C19.5 13.3115 18.8766 15.3721 17.6298 17.2818C16.3829 19.1913 14.7051 20.521 12.5963 21.271C12.5026 21.3043 12.4058 21.3293 12.3058 21.346C12.2058 21.3627 12.1038 21.371 12 21.371ZM12 19.9C13.7333 19.35 15.1667 18.25 16.3 16.6C17.4333 14.95 18 13.1167 18 11.1V6.5865C18 6.5225 17.9823 6.46483 17.947 6.4135C17.9118 6.36217 17.8622 6.32367 17.798 6.298L12.1058 4.173C12.0738 4.16017 12.0385 4.15375 12 4.15375C11.9615 4.15375 11.9262 4.16017 11.8942 4.173L6.202 6.298C6.13783 6.32367 6.08817 6.36217 6.053 6.4135C6.01767 6.46483 6 6.5225 6 6.5865V11.1C6 13.1167 6.56667 14.95 7.7 16.6C8.83333 18.25 10.2667 19.35 12 19.9Z" fill="black"/>
</g>
</svg>
