<svg width="24" height="24" viewBox="0 0 24 24" fill="none" xmlns="http://www.w3.org/2000/svg">
<mask id="mask0_138_5229" style="mask-type:alpha" maskUnits="userSpaceOnUse" x="0" y="0" width="24" height="24">
<rect width="24" height="24" fill="#D9D9D9"/>
</mask>
<g mask="url(#mask0_138_5229)">
<path d="M10.9212 19.2095L1.89044 10.1788C1.73528 10.0238 1.62053 9.85167 1.54619 9.6625C1.47186 9.47333 1.43469 9.28267 1.43469 9.0905C1.43469 8.87117 1.48019 8.66283 1.57119 8.4655C1.66219 8.268 1.79869 8.09167 1.98069 7.9365C3.36669 6.8045 4.93886 5.94875 6.69719 5.36925C8.45536 4.78975 10.2229 4.5 11.9999 4.5C13.7769 4.5 15.5445 4.78975 17.3027 5.36925C19.061 5.94875 20.6332 6.8045 22.0192 7.9365C22.2012 8.09167 22.3377 8.268 22.4287 8.4655C22.5197 8.66283 22.5652 8.87117 22.5652 9.0905C22.5652 9.28267 22.528 9.47333 22.4537 9.6625C22.3794 9.85167 22.2646 10.0238 22.1094 10.1788L13.0787 19.2095C12.9237 19.3647 12.7532 19.4794 12.5672 19.5538C12.3814 19.6281 12.1923 19.6652 11.9999 19.6652C11.8076 19.6652 11.6185 19.6281 11.4327 19.5538C11.2467 19.4794 11.0762 19.3647 10.9212 19.2095Z" fill="black"/>
</g>
</svg>
