<svg width="24" height="24" viewBox="0 0 24 24" fill="none" xmlns="http://www.w3.org/2000/svg">
<mask id="mask0_138_5226" style="mask-type:alpha" maskUnits="userSpaceOnUse" x="0" y="0" width="24" height="24">
<rect width="24" height="24" fill="#D9D9D9"/>
</mask>
<g mask="url(#mask0_138_5226)">
<path d="M4.51144 21.5C4.25627 21.5 4.05211 21.416 3.89894 21.248C3.74577 21.08 3.66919 20.8841 3.66919 20.6603C3.66919 20.5483 3.68777 20.4467 3.72494 20.3557C3.76211 20.2647 3.82427 20.1757 3.91144 20.0885L20.0884 3.9115C20.1756 3.82433 20.2647 3.76217 20.3557 3.725C20.4467 3.68783 20.5482 3.66925 20.6602 3.66925C20.884 3.66925 21.0799 3.74583 21.2479 3.899C21.4159 4.05217 21.4999 4.25633 21.4999 4.5115V20.2885C21.4999 20.625 21.3821 20.911 21.1464 21.1465C20.9109 21.3822 20.6249 21.5 20.2884 21.5H4.51144Z" fill="black"/>
</g>
</svg>
