<svg width="24" height="24" viewBox="0 0 24 24" fill="none" xmlns="http://www.w3.org/2000/svg">
<mask id="mask0_138_5262" style="mask-type:alpha" maskUnits="userSpaceOnUse" x="0" y="0" width="24" height="24">
<rect width="24" height="24" fill="#D9D9D9"/>
</mask>
<g mask="url(#mask0_138_5262)">
<path d="M2.94214 15.2845C2.94214 15.8257 3.12806 16.2488 3.49989 16.5538C3.87172 16.8589 4.46664 17.0628 5.28464 17.1655C5.48714 17.1923 5.64989 17.2843 5.77289 17.4413C5.89606 17.5984 5.95247 17.7783 5.94214 17.9808C5.93197 18.1936 5.85606 18.3693 5.71439 18.5078C5.57272 18.6461 5.40381 18.7018 5.20764 18.675C3.96014 18.5212 3.02072 18.1609 2.38939 17.5943C1.75789 17.0276 1.44214 16.2577 1.44214 15.2845C1.44214 14.2718 1.86714 13.4504 2.71714 12.8203C3.56714 12.1901 4.74856 11.8083 6.26139 11.675C6.98839 11.6122 7.53364 11.4808 7.89714 11.2808C8.26047 11.0808 8.44214 10.8038 8.44214 10.45C8.44214 10.0128 8.25272 9.66926 7.87389 9.41926C7.49506 9.16926 6.87364 8.97951 6.00964 8.85001C5.80697 8.82301 5.64089 8.73009 5.51139 8.57126C5.38189 8.41226 5.33064 8.23143 5.35764 8.02876C5.38447 7.81609 5.47706 7.64309 5.63539 7.50976C5.79372 7.37643 5.97739 7.32643 6.18639 7.35976C7.46072 7.55326 8.40531 7.90326 9.02014 8.40976C9.63481 8.91609 9.94214 9.59618 9.94214 10.45C9.94214 11.2435 9.63739 11.8727 9.02789 12.3375C8.41822 12.8022 7.53322 13.0813 6.37289 13.175C5.22939 13.2712 4.37172 13.4943 3.79989 13.8443C3.22806 14.1943 2.94214 14.6743 2.94214 15.2845ZM13.1826 18.048L9.75939 14.625L18.3364 6.05776C18.6312 5.76293 18.9758 5.61709 19.3701 5.62026C19.7643 5.62343 20.1088 5.76926 20.4036 6.05776L21.7499 7.40376C22.0447 7.69876 22.1921 8.04493 22.1921 8.44226C22.1921 8.83976 22.0447 9.18593 21.7499 9.48076L13.1826 18.048ZM9.08064 19.5C8.85497 19.5538 8.65631 19.4948 8.48464 19.323C8.31281 19.1512 8.25381 18.9525 8.30764 18.727L8.96714 15.5098L12.2826 18.825L9.08064 19.5Z" fill="black"/>
</g>
</svg>
