<svg width="24" height="24" viewBox="0 0 24 24" fill="none" xmlns="http://www.w3.org/2000/svg">
<mask id="mask0_138_5313" style="mask-type:alpha" maskUnits="userSpaceOnUse" x="0" y="0" width="24" height="24">
<rect width="24" height="24" fill="#D9D9D9"/>
</mask>
<g mask="url(#mask0_138_5313)">
<path d="M6.69228 15.6153C5.54911 15.6153 4.57744 15.2154 3.77728 14.4158C2.97711 13.6159 2.57703 12.6448 2.57703 11.5023C2.57703 10.3598 2.97686 9.38785 3.77653 8.58652C4.57636 7.78535 5.54753 7.38477 6.69003 7.38477C7.83253 7.38477 8.80444 7.78485 9.60578 8.58502C10.4071 9.38518 10.8078 10.3568 10.8078 11.5C10.8078 11.9948 10.7219 12.4667 10.55 12.9155C10.3782 13.3642 10.1308 13.7642 9.80778 14.1155H14.1923C13.8693 13.7642 13.6219 13.3642 13.45 12.9155C13.2782 12.4667 13.1923 11.9948 13.1923 11.5C13.1923 10.3568 13.5922 9.38518 14.392 8.58502C15.1919 7.78485 16.163 7.38477 17.3055 7.38477C18.448 7.38477 19.4199 7.7846 20.221 8.58427C21.0224 9.3841 21.423 10.3553 21.423 11.4978C21.423 12.6403 21.0229 13.6122 20.2228 14.4135C19.4226 15.2147 18.4509 15.6153 17.3078 15.6153H6.69228ZM6.69203 14.1155C7.42436 14.1155 8.04336 13.8627 8.54903 13.357C9.05486 12.8513 9.30778 12.2324 9.30778 11.5003C9.30778 10.7681 9.05494 10.1491 8.54928 9.64326C8.04378 9.13743 7.42486 8.88452 6.69253 8.88452C5.96036 8.88452 5.34136 9.13735 4.83553 9.64301C4.32986 10.1487 4.07703 10.7676 4.07703 11.4998C4.07703 12.2319 4.32978 12.8509 4.83528 13.3568C5.34094 13.8626 5.95986 14.1155 6.69203 14.1155ZM17.3075 14.1155C18.0397 14.1155 18.6587 13.8627 19.1645 13.357C19.6702 12.8513 19.923 12.2324 19.923 11.5003C19.923 10.7681 19.6703 10.1491 19.1648 9.64326C18.6591 9.13743 18.0402 8.88452 17.308 8.88452C16.5757 8.88452 15.9567 9.13735 15.451 9.64301C14.9452 10.1487 14.6923 10.7676 14.6923 11.4998C14.6923 12.2319 14.9451 12.8509 15.4508 13.3568C15.9563 13.8626 16.5752 14.1155 17.3075 14.1155Z" fill="black"/>
</g>
</svg>
