<svg width="24" height="24" viewBox="0 0 24 24" fill="none" xmlns="http://www.w3.org/2000/svg">
<mask id="mask0_138_5337" style="mask-type:alpha" maskUnits="userSpaceOnUse" x="0" y="0" width="24" height="24">
<rect width="24" height="24" fill="#D9D9D9"/>
</mask>
<g mask="url(#mask0_138_5337)">
<path d="M10.5095 21.096C10.1802 21.096 9.87925 20.9973 9.60675 20.8C9.33442 20.6028 9.14758 20.3387 9.04625 20.0077L8.24625 17.2577C7.42692 16.6949 6.76442 15.9513 6.25875 15.027C5.75292 14.1027 5.5 13.0937 5.5 12C5.5 10.9063 5.75292 9.89733 6.25875 8.97299C6.76442 8.04866 7.42692 7.30508 8.24625 6.74224L9.04625 3.99224C9.14758 3.66124 9.33442 3.39716 9.60675 3.19999C9.87925 3.00266 10.1802 2.90399 10.5095 2.90399H13.4905C13.8198 2.90399 14.1207 3.00266 14.3932 3.19999C14.6656 3.39716 14.8524 3.66124 14.9538 3.99224L15.7538 6.74224C16.5731 7.30508 17.2356 8.04866 17.7413 8.97299C18.2471 9.89733 18.5 10.9063 18.5 12C18.5 13.0937 18.2471 14.1027 17.7413 15.027C17.2356 15.9513 16.5731 16.6949 15.7538 17.2577L14.9538 20.0077C14.8524 20.3387 14.6656 20.6028 14.3932 20.8C14.1207 20.9973 13.8198 21.096 13.4905 21.096H10.5095ZM12 17C13.3833 17 14.5625 16.5125 15.5375 15.5375C16.5125 14.5625 17 13.3833 17 12C17 10.6167 16.5125 9.43749 15.5375 8.46249C14.5625 7.48749 13.3833 6.99999 12 6.99999C10.6167 6.99999 9.4375 7.48749 8.4625 8.46249C7.4875 9.43749 7 10.6167 7 12C7 13.3833 7.4875 14.5625 8.4625 15.5375C9.4375 16.5125 10.6167 17 12 17ZM10.0808 5.78849C10.4206 5.69233 10.7457 5.61766 11.056 5.56449C11.3665 5.51133 11.6812 5.48474 12 5.48474C12.3188 5.48474 12.6335 5.51133 12.944 5.56449C13.2543 5.61766 13.5794 5.69233 13.9193 5.78849L13.5 4.40399H10.5L10.0808 5.78849ZM10.5 19.596H13.5L13.9193 18.2115C13.5794 18.3077 13.2543 18.3782 12.944 18.423C12.6335 18.4678 12.3188 18.4902 12 18.4902C11.6812 18.4902 11.3665 18.4678 11.056 18.423C10.7457 18.3782 10.4206 18.3077 10.0808 18.2115L10.5 19.596ZM10.5 19.596H10.0808H13.9193H10.5Z" fill="black"/>
</g>
</svg>
