<svg width="24" height="24" viewBox="0 0 24 24" fill="none" xmlns="http://www.w3.org/2000/svg">
<mask id="mask0_138_5334" style="mask-type:alpha" maskUnits="userSpaceOnUse" x="0" y="0" width="24" height="24">
<rect width="24" height="24" fill="#D9D9D9"/>
</mask>
<g mask="url(#mask0_138_5334)">
<path d="M10.7308 21.096C10.3359 21.096 9.97533 20.9781 9.649 20.7422C9.32283 20.5064 9.10267 20.191 8.9885 19.796L8.24625 17.2577C7.42692 16.6949 6.76442 15.9513 6.25875 15.027C5.75292 14.1027 5.5 13.0937 5.5 12C5.5 10.9063 5.75292 9.89733 6.25875 8.97299C6.76442 8.04866 7.42692 7.30508 8.24625 6.74224L8.9885 4.20399C9.10267 3.80899 9.32283 3.49358 9.649 3.25774C9.97533 3.02191 10.3359 2.90399 10.7308 2.90399H13.6058C13.9134 2.90399 14.1862 2.99341 14.424 3.17224C14.6618 3.35108 14.8275 3.59108 14.921 3.89224L15.7538 6.74224C16.5731 7.30508 17.2356 8.04866 17.7413 8.97299C18.2471 9.89733 18.5 10.9063 18.5 12C18.5 13.0937 18.2471 14.1027 17.7413 15.027C17.2356 15.9513 16.5731 16.6949 15.7538 17.2577L15.0115 19.796C14.8973 20.191 14.6772 20.5064 14.351 20.7422C14.0247 20.9781 13.6641 21.096 13.2693 21.096H10.7308ZM12 17C13.3833 17 14.5625 16.5125 15.5375 15.5375C16.5125 14.5625 17 13.3833 17 12C17 10.6167 16.5125 9.43749 15.5375 8.46249C14.5625 7.48749 13.3833 6.99999 12 6.99999C10.6167 6.99999 9.4375 7.48749 8.4625 8.46249C7.4875 9.43749 7 10.6167 7 12C7 13.3833 7.4875 14.5625 8.4625 15.5375C9.4375 16.5125 10.6167 17 12 17Z" fill="black"/>
</g>
</svg>
